<?xml version="1.0" encoding="utf-8"?>
<svg xmlns="http://www.w3.org/2000/svg" xmlns:svg="http://www.w3.org/2000/svg" version="1.1" viewBox="0 0 24 38">
	<title>A line from top left to bottom centre that bends round in a circle to point back to top right.</title>
	<path d="M4.03.1c6.98-.25 6.13 7.32 8.69 11.48C15.15 13.72 14.07-.34 19.34.01c3 .33 5.2 1.5 4.48 5.78.49 4.87-5.73 11.3-7.37 16.8.63 2.98 1.6 5.74 4.2 7.48A29.73 29.73 0 0 1 12.81 38c-6.3-.22-10.8-3.06-10.46-6.9-1-3.1 6-7.88 5.98-10-.55-4.29-6.3-10.2-7.84-12.88C-.55 7.4-.18-.38 4.03.1z"/>
</svg>
