<?xml version="1.0" encoding="utf-8"?>
<svg xmlns="http://www.w3.org/2000/svg" xmlns:svg="http://www.w3.org/2000/svg" version="1.1" viewBox="0 0 25 38">
	<title>Two near vertical lines joining in the middle to curve to the bottom left.</title>
	<path d="M.03 5.53C.63 1.87 2.02.17 4.6 0c5.01.07 7.5 11.66 12.2 17.87 2.3-2.85-1.53-12.22-1.32-13.38.2-6.57 6.4-5.8 7.99 2.05 1.57 7.69.57 17.82-.57 20.76-2.88 5.74-7.36 9.55-12.47 10.54-5.55.73-7.56-1.12-7.76-3.65.02-1.66 3.5-1.22 7.56-4.23 1.63-.73 1.94-8.37.58-10.67-.98-2.89-2.2-4.6-3.74-6.7-1.35-2.21-3.01.95-4.1.51-1.46 0-3.22-4.5-2.95-7.57z"/>
</svg>
