<?xml version="1.0" encoding="utf-8"?>
<svg xmlns="http://www.w3.org/2000/svg" xmlns:svg="http://www.w3.org/2000/svg" version="1.1" viewBox="0 0 500 495">
	<title>A circle with the text “Mafah Iylun Fauwlin” arranged around it three times. Around the inside the circle are small circles and lines to indicate stress markers. In the centre of the circle are the words Tawil, Madid and Basit stacked vertically. A dashed line comes from Tawil to point to the small circle aligned with the F from the first Fauwlun. Another dashed line comes from Madid to point to the small circle aligned with the L from the first Fauwlun. A final dashed line comes from Basit to point to the small circle aligned with the I from the first Iylun.</title>
	<path d="m225.43 493.72-2.17-.45-5.42-1.07c-.84-.18-.92-.31-.83-1.4.1-1.2.1-1.2 2.1-1.11 1.1.05 2.87.4 3.94.76 1.32.45 2.08.56 2.35.33.25-.2.42-1.47.45-3.34.05-3 .05-3-2.35-3.01-3 0-3.27-.17-3-1.78.26-1.63 1.1-1.98 3.62-1.51 1.03.19 1.97.25 2.09.13.12-.12.23-1.22.26-2.44.04-2.26.25-3.95.51-4.22.2-.19 1.2-.28 2.4-.21.96.05.96.05.7 2.63a33.53 33.53 0 0 0-.2 3.24c.11 1.55-1.06 13.02-1.37 13.4-.37.46-1.12.47-3.08.05zm39.95-1.38c-.43-3.15-.9-17.29-.61-18.1.1-.27.5-.28 1.53-.02 1.09.27 1.96.94 4.05 3.1 2.84 2.92 4.83 5.25 4.83 5.65 0 .37 3.58 3.8 3.97 3.8.4 0 .2-1.87-.7-6.47-.83-4.21-.93-7.1-.27-7.53.86-.54 1.96-.34 2.45.43.56.88.8 2.32 1.05 6.4.22 3.46.25 3.7.74 6.16.2 1.01.44 2.7.53 3.75.19 2.15.05 2.31-2.37 2.86-1.35.3-1.35.3-3.69-2.57a125.95 125.95 0 0 0-5.18-5.87 29.95 29.95 0 0 1-2.85-3.24c0-.14-.25-.25-.54-.25-.44 0-.5.26-.35 1.41.18 1.34.4 4.36.7 9.26.13 2.2.13 2.2-.95 2.58-1.87.68-2.09.56-2.34-1.35zm-82.06.06c-.45-.84.07-2.62 1.02-3.49.36-.32.66-.8.66-1.07 0-.62 4.29-5.07 4.89-5.07.25 0 .54.23.65.52.22.56-.06 1.2-1.37 3.3-.46.74-1.09 1.86-1.4 2.5l-1.08 2.28c-.8 1.68-2.7 2.27-3.37 1.03zm113.49-1.88c-1.22-.45-1.6-1.18-1.84-3.52a30 30 0 0 0-.88-4.55 21.17 21.17 0 0 1-1.07-5.67c-.38-3.95.53-5.7 4.04-7.7 2.04-1.17 5.35-1.76 8.07-1.44 1.62.2 1.99.4 3.24 1.73.88.94 1.42 1.82 1.42 2.34 0 .46.35 1.82.78 3.03.43 1.21 1.04 3.4 1.36 4.87.31 1.46.78 3.15 1.04 3.75.77 1.77.62 3.35-.33 3.78-.45.2-1.17.28-1.6.17-.71-.17-.92-.7-2.03-5.11-.68-2.7-1.24-5.3-1.24-5.75 0-.93-1.62-4.38-2.51-5.36-.87-.96-3.7-.86-5.97.22-1.88.89-3.29 2.3-3.01 3.01.08.23.33 1.66.54 3.18.2 1.53.5 2.92.64 3.1.14.19.36 1.31.5 2.5.12 1.19.37 2.33.55 2.54.17.2.4 1.26.5 2.35.19 1.88.16 1.98-.69 2.36-.48.22-.9.4-.95.38l-.56-.21zm-99.26-1.18c-.35-.27-.79-1.71-1.23-4.07-.84-4.45-1.3-6.45-1.7-7.33a8.9 8.9 0 0 1-.43-2.16c-.08-.82-.44-2.3-.82-3.28-1.06-2.73-1.06-3.74-.01-4.33.79-.45.96-.45 1.72.05.69.45.89.92 1.06 2.48.39 3.41.49 3.56 2.53 3.8.99.11 2.22.37 2.73.57.92.37 3.81.62 3.99.35.63-.98 1.57-3 1.57-3.39 0-.95.91-1.35 2.4-1.04.75.17 1.43.46 1.5.66.06.2-.3.94-.78 1.66a10 10 0 0 0-1.18 2.34 8.41 8.41 0 0 1-1.1 2.17c-.44.62-1.09 1.72-1.43 2.45a6.57 6.57 0 0 1-1.19 1.8c-.3.24-.55.58-.55.74 0 .43-3.68 6.04-4.28 6.53a2.54 2.54 0 0 1-2.8 0zm4.21-7.57c.87-1.64 1.5-3.12 1.4-3.28-.16-.26-.83-.42-4.13-.95-1.11-.17-1.11-.17-.88 1.11.13.71.27 1.59.3 1.96.04.36.16.89.27 1.16.11.28.3 1.06.4 1.75.12.68.4 1.25.64 1.25.23 0 1.14-1.35 2-3zm-25.33 2.6c-1.63-.35-1.68-.56-.75-3.01.36-.96.66-1.94.66-2.17 0-.23.3-1.06.65-1.83a24.2 24.2 0 0 0 2.08-8.15c.05-1.98-.02-2.25-.82-2.94-1.68-1.44-6.25-1.4-7.71.06-.29.28-.52.93-.52 1.45 0 .51-.22 1.12-.5 1.35-.27.22-.5.66-.5.96 0 .3-.2.85-.44 1.2-.24.37-1 2.4-1.68 4.54-1.35 4.23-1.63 4.53-3.53 3.73-.96-.4-1.06-.57-.9-1.43.12-.53.5-1.62.87-2.4a57.38 57.38 0 0 0 2.75-7.9 7.9 7.9 0 0 1 5.97-5.82c1.2-.22 4.23.38 5.57 1.1.37.2.99.36 1.38.36 1.1 0 3.13 2.27 3.64 4.08.4 1.42.37 1.79-.24 3.66a97.6 97.6 0 0 0-1.23 4.07c-1.1 4.12-2.6 8.67-2.97 9.02-.25.25-.82.27-1.78.06zm155.96-3.84c-.5-.11-1.5-2.33-2.86-6.41a9.1 9.1 0 0 0-1.03-2.27 1.7 1.7 0 0 1-.44-.83c-.01-.22-.08-.7-.15-1.06l-.35-2.17c-.32-2.1-.68-2.66-1.73-2.65-1.06 0-3.45.65-6.14 1.65-2.36.88-3.3.79-3.7-.37-.39-1.08.38-2.01 2.11-2.58 8.88-2.9 9.9-3.12 10.58-2.28.2.22.68 1.36 1.08 2.53.4 1.16.94 2.5 1.2 3 .25.48.45 1.04.45 1.25 0 .2.9 2.63 2 5.39s2 5.15 2 5.31c0 .8-1.9 1.73-3.02 1.49zm12.56-5.54c-.1-.3.18-2.29.64-4.44 1.65-7.65 1.66-7.8.5-9.98-1.17-2.25-2.02-4.6-2.02-5.68 0-.54.33-.91 1.2-1.32 1.2-.58 1.2-.58 2.27.7.59.7 1.26 1.83 1.5 2.5.9 2.52 1.95 3.91 3.26 4.3.68.21 2.06.91 3.06 1.56a9.6 9.6 0 0 0 2.2 1.17c.66 0 5.34 2.28 5.78 2.8.35.42.23.68-.69 1.52-1.22 1.11-1.5 1.17-3.45.64-1.4-.37-5.82-2.87-5.82-3.28 0-.27-2.66-1.13-2.86-.93-.07.08-.21.87-.31 1.77-.32 2.98-.93 6.16-1.21 6.33-.16.1-.28.45-.28.78 0 1.22-3.36 2.61-3.77 1.56zm-197.55-1.77c-.4-.5-.6-1.11-.48-1.41 1.23-3.03 2.86-11.39 2.32-11.93-.12-.12-1.18.82-2.36 2.1-7.42 8.09-7.63 8.26-8.66 7.12-.7-.77-.51-2.66.84-8.63.87-3.84 1.09-5.32.78-5.32-.36 0-1.76 1.12-1.76 1.41 0 .2-.57.97-1.25 1.73-.69.77-2 2.27-2.91 3.34-2.68 3.14-3.1 3.5-3.96 3.5-.84 0-1.87-1.06-1.87-1.93 0-.24 1.61-2.07 3.58-4.04a225.5 225.5 0 0 0 6.07-6.37c4.49-4.97 4.34-4.87 5.65-3.47.76.8.76.85.24 2.57-.59 1.96-1.4 6.13-1.75 8.92-.12 1-.37 2.1-.55 2.44-.2.37-.2.74-.02.92.18.18 1-.53 2.02-1.78.94-1.14 2.47-2.9 3.38-3.91.92-1.01 1.67-1.95 1.67-2.09.02-.48 2.91-3.24 3.4-3.24.27 0 .84.38 1.27.83.78.83.78.83.2 5.08a79.48 79.48 0 0 1-1.21 7.57c-.2.91-.43 2.41-.54 3.33-.18 1.68-.9 3.46-1.57 3.9-.76.5-1.85.23-2.53-.64zm92.98-6.06c-.1-.1-1.41-.3-2.91-.44a115.8 115.8 0 0 1-7.55-.9c-1.19-.17-2.39-.3-2.66-.26-.88.1-6.43-.44-7.99-.78a60.5 60.5 0 0 0-3.83-.65c-2.45-.33-2.59-.35-7.32-1.13-3.33-.55-6.93-1.35-7.41-1.65-.18-.1-1.13-.3-2.11-.4a9.9 9.9 0 0 1-2.38-.53c-.32-.17-.74-.22-.92-.1-.33.2-2.04-.25-3.82-1.02-.54-.24-1.6-.58-2.32-.77a209.97 209.97 0 0 1-15-4.92 25.7 25.7 0 0 0-2.84-.91c-.99-.27-2.77-.94-3.96-1.51a11.87 11.87 0 0 0-2.75-1.03c-.33 0-1.64-.53-2.9-1.17a13.02 13.02 0 0 0-2.86-1.16c-.3 0-1.11-.45-1.8-1-.7-.55-1.47-1-1.72-1-.24 0-1.5-.5-2.78-1.13-5.33-2.6-8.78-4.2-9.07-4.2-.17 0-.58-.3-.91-.66-.33-.36-.78-.66-.98-.66-.94 0-5.27-2.64-15.69-9.57a92.18 92.18 0 0 0-5.33-3.41c-.12 0-1.68-1.16-3.47-2.58-1.8-1.42-4.35-3.4-5.68-4.41a84.73 84.73 0 0 1-5.62-4.61 1215.8 1215.8 0 0 1-8.12-7.04c-1.12-.96-1.42-1.26-10.33-10.31-5.84-5.94-8.34-8.6-10.11-10.8l-2-2.46a38.99 38.99 0 0 1-1.89-2.46 61.12 61.12 0 0 0-3.4-4.78 7.54 7.54 0 0 1-1.1-1.61c0-.13-.52-.88-1.16-1.66a6.7 6.7 0 0 1-1.16-1.76c0-.18-.32-.61-.71-.96a11.42 11.42 0 0 1-1.54-1.94c-.45-.72-1.1-1.6-1.42-1.95a4.1 4.1 0 0 1-.82-1.52 4.24 4.24 0 0 0-.83-1.55c-.85-.93-2.03-3.01-4.33-7.65a68.76 68.76 0 0 0-2.99-5.5c-.55-.81-1-1.65-1-1.85 0-.2-.83-1.9-1.83-3.77-1.01-1.88-1.84-3.59-1.84-3.8 0-.21-.27-.84-.6-1.39-.33-.55-.86-1.67-1.18-2.5a64.85 64.85 0 0 0-1.62-3.65 44.03 44.03 0 0 1-1.27-2.83 72 72 0 0 0-.9-2.33c-1.9-4.74-2.8-7.2-3.37-9.17-.34-1.2-.87-2.66-1.17-3.25-.3-.59-.69-1.7-.85-2.48-.15-.77-.84-3.28-1.51-5.57-1.4-4.7-1.62-5.61-2.16-8.65-.22-1.19-.6-2.98-.87-4-.6-2.26-1.46-6.27-1.82-8.48-.15-.91-.34-1.96-.42-2.33-.08-.36-.25-1.34-.38-2.16-.12-.82-.42-2.55-.67-3.83a60.9 60.9 0 0 1-.67-6.15c-.13-2.1-.37-5.03-.55-6.5-.7-5.87-1.54-19.05-1.32-20.62.03-.19.11-1.53.19-3 .2-3.75.84-13.68 1-15.47.07-.83.6-4.72 1.17-8.65a769.3 769.3 0 0 0 1.52-10.97c.26-2.1.87-5.01 1.35-6.49.47-1.47.91-2.9.97-3.18.3-1.5.96-4.06 1.48-5.82.33-1.1.86-2.97 1.19-4.16 1.54-5.68 4.87-15.68 5.95-17.88.47-.96.86-1.9.86-2.08 0-.18.3-.81.66-1.41.37-.6.67-1.34.67-1.63 0-.52 1.2-3.46 2.14-5.29.24-.45.54-1.27.66-1.8.13-.54.64-1.66 1.13-2.5.5-.83.92-1.87.96-2.3a2.7 2.7 0 0 1 .54-1.34c.26-.3.68-1.12.93-1.83.25-.7.78-1.63 1.17-2.05.39-.42 1.57-2.4 2.63-4.37 2.99-5.6 3.87-7.2 4.47-8.1.31-.45.66-1.07.76-1.37.23-.63 3.2-5.04 3.57-5.28.14-.1.36-.54.5-1 .25-.82 1.63-2.83 4.67-6.82a539.5 539.5 0 0 1 7.05-9.08c.5-.6 1.13-1.44 1.41-1.87 1.03-1.54 9.42-10.57 15.18-16.32 7.18-7.16 9.84-9.57 16.26-14.66 1.16-.92 2.98-2.42 4.06-3.35 1.08-.93 2.7-2.2 3.62-2.82.92-.63 2.41-1.76 3.33-2.5.91-.76 2.56-1.95 3.66-2.66 1.1-.7 2.37-1.61 2.83-2.01.46-.4 2.03-1.36 3.5-2.13 1.46-.76 2.88-1.6 3.15-1.84.63-.55 3-1.88 5.08-2.84.87-.4 1.58-.86 1.58-1.02 0-.16.79-.68 1.75-1.17a33.2 33.2 0 0 0 3.13-1.83c.77-.53 1.51-.96 1.66-.96.23 0 7.25-3.36 10.77-5.17.83-.42 2.4-1.1 3.5-1.49 1.09-.4 2.58-1 3.31-1.33 1.2-.56 7.16-2.89 10.15-3.97.65-.23 2.35-.77 3.79-1.2 1.44-.44 2.79-.94 3-1.1.2-.18 1.34-.56 2.53-.86 1.2-.3 3.37-1.08 4.91-1.52 2.59-.75 1.84-.52 3.97-1.12 3.14-.94 5.5-1.46 6.04-1.32.36.1.75.01.87-.19s.6-.36 1.07-.36c.46 0 1.61-.2 2.56-.46 3.19-.85 7.03-1.67 7.47-1.58a7.5 7.5 0 0 0 2.16-.57c1.8-.67 7.47-1.56 11.97-1.87l5.15-.36c1.42-.1 3.08-.25 3.7-.35 3.87-.61 28.22-.72 30.82-.14.85.2 1.7.26 1.87.15.56-.34 15.86 1.27 19.1 2.01 1.1.25 3.12.56 4.5.68 1.37.12 3.1.37 3.82.56.74.2 1.63.38 2 .4 1.13.1 3.3.56 4 .87.36.15 1.7.45 2.95.66 1.27.2 2.86.66 3.55 1 .69.36 2.05.79 3.03.96a47 47 0 0 1 4.6 1.21c1.56.5 3.06.93 3.33.98 2.2.37 7.6 2.11 9.37 3.04.84.44 1.72.8 1.94.8.41 0 3.81 1.3 6.23 2.37.77.34 1.57.62 1.78.62.21 0 1.08.36 1.93.8a51.23 51.23 0 0 0 6.87 3.03c.92.3 1.97.8 2.33 1.12a8.44 8.44 0 0 0 3.16 1.56c.46.12 1.06.4 1.33.62.28.22 1.18.68 2 1.03.82.35 2.09 1.13 2.8 1.73.73.6 1.59 1.1 1.92 1.1.34 0 .87.3 1.2.69a8.3 8.3 0 0 0 2.35 1.5c.97.43 2.38 1.28 3.13 1.87 1.36 1.1 3.01 2.12 6 3.74.88.48 2.25 1.37 3.05 1.98.8.61 2.31 1.62 3.35 2.24a67.93 67.93 0 0 1 9.54 6.86c.9.78 1.75 1.41 1.9 1.41.14 0 1.15.76 2.23 1.7l3.21 2.74c.7.58 2.2 1.95 3.37 3.05l5.54 5.16a115.6 115.6 0 0 1 4.95 4.82c.85.91 2.8 2.95 4.36 4.52a63.46 63.46 0 0 1 4.5 5.07c.9 1.21 1.91 2.3 2.22 2.4.31.1.66.48.77.83.11.35.58.94 1.03 1.3.46.35 1.22 1.22 1.69 1.92s2.56 3.38 4.64 5.97c2.08 2.59 3.79 4.86 3.79 5.04 0 .32 2.68 4.08 3.57 5 .23.25.42.56.42.7 0 .13.27.53.6.88.33.36 1.19 1.62 1.91 2.81a76.31 76.31 0 0 0 1.56 2.5l1.38 1.86c.62.85 1.24 1.9 1.37 2.33.14.44.45 1.03.7 1.32a15 15 0 0 1 1.21 1.85l1.75 3.1c.55.96 1.33 2.17 1.74 2.67.4.5.88 1.55 1.05 2.33.18.78.48 1.58.68 1.78.2.2.36.63.36.96 0 .34.14.87.31 1.19.17.31.7 1.4 1.18 2.4 1.51 3.22 2.88 5.81 3.35 6.34.25.28.75 1.72 1.1 3.2.36 1.48.8 2.97.98 3.31.18.35.4 1.1.5 1.67.09.58.61 2 1.16 3.17.55 1.16 1.1 2.64 1.24 3.28.13.64.58 1.92 1 2.85.42.93.94 2.36 1.16 3.17.5 1.86 1.7 5.97 2.8 9.62.48 1.55.86 3.08.86 3.4 0 .32.29 1.74.64 3.16 1.2 4.83 2.35 10.38 2.35 11.38 0 .54.13 1.07.3 1.17.15.1.39 1.09.51 2.2.13 1.13.37 2.4.53 2.82.16.42.38 2.22.5 3.98.25 4.08 0 1.2.27 4.5.02.26.57 2.8.69 6.18.06 1.85.27 3.64.45 4 .18.35.29 1.57.24 2.71-.05 1.15 0 2.14.12 2.22.12.07.2 2.88.16 6.24-.03 3.36-.05 6.63-.04 7.27.01 1.47.02 1.08-.2 6.15-.17 3.8-.29 5.13-.76 8.82-.06.46-.1 1.84-.08 3.06a8.88 8.88 0 0 1-.34 2.9c-.2.37-.43 1.76-.51 3.1a65.23 65.23 0 0 1-1.03 7.58c-.1.46-.38 2.03-.63 3.5-1.07 6.2-1.5 8.25-1.83 8.63-.18.23-.26.48-.18.57.24.24-.74 4.68-1.47 6.68-.35.97-.74 2.43-.87 3.25a26.9 26.9 0 0 1-1.95 6.27 7.8 7.8 0 0 0-.67 2.1c-.27 2-.6 3.29-.9 3.47-.52.32-1.29 2.5-1.29 3.66 0 .6-.15 1.2-.33 1.3-.19.12-.34.58-.34 1.03 0 .45-.44 1.71-1 2.8-.54 1.09-1 2.16-1 2.38 0 .22-.2.63-.45.92-.25.3-.8 1.64-1.23 2.99a12.84 12.84 0 0 1-1.49 3.33 5.9 5.9 0 0 0-.97 1.7c-.27.88-5.71 11.9-6.16 12.48-.15.18-.88 1.55-1.64 3.04-.75 1.48-1.6 2.89-1.87 3.11-.27.23-.5.6-.5.82 0 .23-.3.68-.66 1.01-.36.33-.66.8-.66 1.03 0 .58-1.36 2.9-1.9 3.23-.24.15-.43.46-.43.7 0 .5-3.33 5.62-4.38 6.74-.36.39-.91 1.17-1.22 1.73-.3.56-2.13 3.06-4.05 5.55l-4.18 5.42c-.38.49-1.4 1.64-2.25 2.55-.86.91-1.56 1.77-1.56 1.9 0 .15-.75 1.09-1.66 2.1-.92 1.01-1.67 1.99-1.67 2.17 0 .19-.37.51-.83.72-.46.2-.83.57-.83.8 0 .23-1.6 1.89-3.55 3.69-1.95 1.8-4.91 4.62-6.59 6.26a180.65 180.65 0 0 1-5.66 5.33 158.98 158.98 0 0 0-4.67 4.32c-5.02 4.91-5.37 4.5-5.88 4.93-.66.54-.32.22-.85.65-.34.28-.8.7-2.14 1.59a28.63 28.63 0 0 0-3.1 2.36 70.3 70.3 0 0 1-10.16 7.28c-.73.38-1.8 1.16-3.28 2.38-.25.21-1.6.98-2.99 1.72-1.4.73-2.73 1.53-2.98 1.78-.24.24-.71.44-1.04.44-.33 0-.8.23-1.02.5-.23.27-.59.5-.8.5-.2 0-.9.36-1.56.8-1.8 1.22-11 5.85-11.62 5.85-.3 0-.9.38-1.33.84-.43.45-.95.83-1.16.83-.2 0-1.44.52-2.74 1.16-1.3.64-2.5 1.17-2.66 1.17-.17 0-1.15.43-2.2.97a28.26 28.26 0 0 1-3.8 1.55c-1.05.32-2.08.71-2.3.87-.2.16-1.4.64-2.66 1.07-5.09 1.73-6.68 2.3-8.27 2.93-3.93 1.59-8.7 3.12-10.98 3.54-.91.16-2.93.68-4.5 1.14-1.55.46-3.34.92-3.98 1.02-.64.11-2.89.58-4.98 1.04a93 93 0 0 1-5.33 1.05c-.83.1-1.6.26-1.73.33-.31.19-3.18.74-6.93 1.34-2.98.48-7.05.85-14.31 1.3-1.74.1-3.63.34-4.21.52-.58.18-1.63.32-2.33.3-1.86-.03-17.28.33-19.33.45-.97.05-1.84.02-1.94-.09zm20.27-4.2c3.8-.27 7.04-.43 7.17-.34.14.08.91-.09 1.72-.38 1.45-.5 3.55-.76 11.96-1.42 2.29-.18 5.33-.63 6.75-1.01a44 44 0 0 1 3.5-.8l2.73-.35c1-.13 2.13-.36 2.5-.5 1.8-.75 3.74-1.35 4.33-1.35.36 0 1.69-.37 2.95-.83a16.5 16.5 0 0 1 2.8-.83c.65 0 5.83-1.56 7.31-2.2.6-.25 1.43-.46 1.83-.46.41 0 1.79-.4 3.07-.87 1.28-.48 2.9-1 3.59-1.17.69-.16 1.51-.43 1.83-.6a27.26 27.26 0 0 1 4.36-1.67c1.17-.37 2.29-.8 2.5-.97.2-.16 1.11-.56 2.03-.9.91-.34 2.33-1.04 3.14-1.55a6.28 6.28 0 0 1 2.04-.93c.59 0 5.99-2.31 7.75-3.32.58-.33 1.42-.71 1.88-.85.67-.2 4.67-2.27 7.32-3.8l3.82-2.19c4.15-2.37 6.58-3.95 7.14-4.62.24-.29.57-.52.73-.52.42 0 5.39-3.4 5.71-3.91a.96.96 0 0 1 .71-.42c.24 0 .63-.22.85-.5.23-.27 1.26-.97 2.3-1.55a82.5 82.5 0 0 0 8.63-6.51c.24-.23.58-.42.76-.42.27 0 2.05-1.51 9.4-7.97.53-.47 3.68-3.5 7-6.75l6.46-6.32c2.16-2.09 8.72-9.43 8.72-9.76 0-.23.38-.77.85-1.2.47-.43 1.63-1.89 2.58-3.24 3.24-4.62 4.05-5.8 4.42-6.43.2-.34.68-.95 1.05-1.36.37-.4 1.36-1.78 2.2-3.06.84-1.28 2.13-3.2 2.87-4.27.73-1.06 1.33-2 1.33-2.1 0-.08.6-.93 1.3-1.88a61.57 61.57 0 0 0 4.77-7.89c.53-1 1.22-2.12 1.55-2.5.5-.56 2.65-4.8 6.56-12.98.44-.92.8-1.94.8-2.26 0-.77.85-2.42 1.68-3.24.36-.36.65-1.06.65-1.57 0-.95.68-3.15 1.51-4.96.27-.57.48-1.26.48-1.51 0-.26.22-.76.5-1.12.26-.35.49-.87.5-1.15 0-.27.32-1.1.7-1.82.4-.72.94-2.06 1.2-2.98.28-.92.71-1.97.97-2.33.25-.37.46-.98.46-1.36 0-.38.15-.84.33-1.02.18-.18.93-2.64 1.65-5.47.72-2.83 1.55-5.8 1.83-6.6.29-.8.52-1.98.52-2.6 0-1.05.59-3.97 1.34-6.6.42-1.5 1.42-7.63 1.83-11.24.08-.7.24-1.43.36-1.63.13-.2.44-2.1.7-4.23.26-2.12.61-4.83.78-6.02.18-1.2.45-3.59.6-5.33.5-5.61-.14-29.93-.96-36.27l-.86-6.82c-.28-2.2-.65-4.46-.82-5.02-.17-.57-.47-2.28-.66-3.8a25.2 25.2 0 0 0-.49-3c-.07-.11-.22-1.02-.33-2.02-.1-.99-.49-3.28-.84-5.08-.36-1.8-.66-3.6-.66-4 0-.39-.46-1.75-1-3.03a12.47 12.47 0 0 1-.99-3.25c0-.5-.13-1.18-.29-1.5-1.41-2.85-2.04-4.45-2.04-5.22 0-.5-.22-1.35-.5-1.88l-1.02-1.97c-.28-.55-.42-1.15-.3-1.34.22-.36-.8-3.24-1.88-5.36a5.59 5.59 0 0 1-.63-1.92c0-.4-.2-1.05-.46-1.45-.26-.4-.8-1.79-1.23-3.07a26.47 26.47 0 0 0-1.3-3.33 9.97 9.97 0 0 1-.8-1.96c-.6-2.44-6.09-13.25-7.75-15.28-.42-.52-.77-1.14-.77-1.37 0-.54-2.8-5.92-4.05-7.74a6.68 6.68 0 0 1-.94-1.73c0-.18-.21-.46-.47-.6a6.52 6.52 0 0 1-1.3-1.86c-.47-.87-1.46-2.5-2.2-3.61a14.31 14.31 0 0 1-1.35-2.29c0-.14-.23-.34-.5-.45-.28-.1-.5-.36-.5-.56 0-.2-.68-1.32-1.51-2.48l-1.56-2.18a130.44 130.44 0 0 0-8.41-10.63c-.5-.57-1.45-1.92-2.31-2.83a92.47 92.47 0 0 1-3.34-3.83c-.98-1.19-2.64-3-3.64-4.08-1.76-1.88-1.91-2.07-2.71-2.97-.39-.44-4.12-3.24-6.88-6a19.25 19.25 0 0 0-2.45-2.26c-.28 0-4.54-3.74-7.46-6.55a50.57 50.57 0 0 0-7.67-6.18 14.61 14.61 0 0 1-2.28-1.7c-.25-.3-.6-.54-.78-.54-.18 0-.95-.52-1.7-1.16-2.41-2.04-2.36-2-5.82-3.98l-2.9-1.68c-.62-.37-2.07-1.17-3.21-1.79a22.93 22.93 0 0 1-2.4-1.41c-.18-.16-.53-.3-.79-.3-.4 0-3.28-1.82-3.73-2.36a9.1 9.1 0 0 0-1.87-.76 6.71 6.71 0 0 1-2.29-1.2 4.81 4.81 0 0 0-1.79-1.02 4.14 4.14 0 0 1-1.55-.81 5.32 5.32 0 0 0-1.5-.96c-.63-.29-1.37-.67-1.65-.85-.27-.17-.87-.4-1.33-.5a6.6 6.6 0 0 1-1.83-.84c-1.54-1.04-4.3-2.48-4.8-2.53-.1 0-1.24-.5-2.52-1.11a48.14 48.14 0 0 0-6.49-2.72c-1.19-.4-3.8-1.32-5.82-2.04-3.65-1.3-6.34-2.18-9.82-3.2-1-.3-1.98-.63-2.16-.74-.18-.11-1.23-.4-2.33-.62a75.3 75.3 0 0 1-5.16-1.37c-1.74-.53-4.06-1.2-5.16-1.51-1.1-.3-2.74-.79-3.66-1.07a9.6 9.6 0 0 0-2.58-.45c-.5.03-2.45-.27-4.33-.65a54.4 54.4 0 0 0-4.57-.8 64.7 64.7 0 0 1-3.66-.46c-1.37-.21-3.4-.45-4.5-.53-1.09-.08-2.89-.24-3.98-.34-5.4-.5-10.44-.85-14.81-1.01-2.66-.1-5.88-.27-7.16-.37-4-.32-8.36-.13-12.14.54-1.01.18-3.1.41-4.66.52-1.56.1-3.07.26-3.35.34-.29.08-1.56.16-2.83.17-2.53.03-4.68.28-11.46 1.32-2.47.38-4.94.74-5.49.79-.55.05-1.42.26-1.93.47a5.9 5.9 0 0 1-1.84.39c-.49 0-1.52.22-2.28.49-.77.27-2.42.71-3.66.98-1.25.28-3.4.81-4.77 1.2-1.37.38-3.27.82-4.21.98-.95.16-2.54.68-3.53 1.15-1 .47-2.05.85-2.34.85-.3 0-1.38.32-2.42.7-1.03.4-2.94.97-4.25 1.3-2.53.63-10.13 3.35-11.53 4.13-.46.25-1.47.63-2.25.84-.78.2-1.41.52-1.41.7 0 .17-.27.32-.6.32-.34 0-1.5.43-2.59.95-1.08.53-2.72 1.29-3.63 1.7-3.23 1.44-10 4.91-11.28 5.78-.71.49-1.54.89-1.84.89-.48 0-4.13 2.25-6.35 3.91-.46.35-1.73 1.12-2.83 1.73-1.1.61-2.52 1.5-3.16 1.98a246.93 246.93 0 0 0-9.79 7.03c-.7.54-1.5.99-1.74.99-.25 0-.45.13-.45.3 0 .16-.79.84-1.75 1.5a66.6 66.6 0 0 0-3.57 2.7c-1.01.83-1.99 1.61-2.18 1.75-.19.13-1.39 1.14-2.66 2.24-1.28 1.1-2.84 2.43-3.48 2.94-2.86 2.3-8.69 7.9-12.82 12.33-10.2 10.95-13.45 14.7-18.38 21.26-.96 1.28-1.75 2.54-1.75 2.82 0 .27-.48 1.06-1.08 1.75-2.07 2.4-7.9 11.63-7.9 12.5 0 .24-.2.55-.46.7-.25.15-1.26 1.61-2.23 3.26-.98 1.65-1.97 3.12-2.2 3.26-.24.15-.44.53-.44.85 0 .58-1 2.74-1.6 3.48-.19.22-.66 1.22-1.06 2.23-.4 1-1.51 3.48-2.48 5.49-5.43 11.27-7.5 16.23-7.5 17.94 0 .3-.22.88-.48 1.29-.27.4-.65 1.46-.84 2.35-.2.89-.66 2.23-1.02 2.98-.36.74-.66 1.79-.66 2.32 0 .53-.35 1.88-.78 3.01a33.3 33.3 0 0 0-1.79 6.21c-.1.64-.38 1.47-.62 1.83-.24.37-.75 2.32-1.13 4.33-.38 2.01-.93 4.41-1.2 5.33-.46 1.47-1.59 7.2-2.46 12.47-.16 1.01-.45 3.33-.64 5.16-.18 1.83-.57 5.33-.86 7.79a66.09 66.09 0 0 0-.5 5.99c.02.84-.07 3.4-.2 5.69-.48 8.18-.1 23.94.65 27.29.27 1.19.6 3.58.71 5.32.12 1.74.52 4.25.88 5.58.36 1.32.8 3.27.99 4.32.56 3.3.91 5.52 1.12 7.18.11.88.4 2.16.66 2.83.4 1.07.8 2.76 1.04 4.38.05.28.39 1.7.77 3.16.38 1.47.7 2.9.7 3.17 0 .68 2.27 8.57 2.83 9.81.24.55.52 1.3.61 1.67a44.21 44.21 0 0 0 2.2 5.82 89.47 89.47 0 0 1 1.73 4.16c.41 1.1.93 2.22 1.15 2.5.22.27.59 1.17.82 2 .23.82.6 1.71.82 1.99.22.27.59 1.1.82 1.83.49 1.6 1.7 4.48 3.19 7.65l2.75 5.89a46.14 46.14 0 0 0 2.76 5.16c.61.88 1.11 1.67 1.12 1.76 0 .18 3.12 4.88 4.73 7.16.52.73 1.38 2.08 1.9 3 .53.91 1.54 2.35 2.24 3.2.7.85 1.28 1.73 1.28 1.96 0 .23.33.77.75 1.2a17.02 17.02 0 0 1 2.38 2.96 9.57 9.57 0 0 0 1.58 1.79c.52.44.95 1 .95 1.23 0 .25.41.93.92 1.54.5.6 1.18 1.65 1.49 2.34.31.68.7 1.24.87 1.24.16 0 1.04 1.02 1.95 2.27 2.35 3.23 14.42 15.62 20.73 21.3l5.15 4.62c3.34 3.01 7.12 6.32 8.01 7.01l2.34 1.83a58.28 58.28 0 0 0 5.93 4.2c.75.43 2.34 1.44 3.54 2.24 1.2.8 2.35 1.46 2.54 1.46.2 0 1.29.75 2.43 1.66 1.15.92 2.2 1.67 2.36 1.67.32 0 7.1 3.89 11.62 6.66 1.74 1.07 3.42 1.95 3.75 1.97.32.01 1.22.43 2 .92 1.4.9 3.74 2 6.56 3.08.82.3 1.87.73 2.33.94 4.12 1.83 8.18 3.45 9.07 3.62.6.11 1.45.4 1.91.64 1.38.72 4 1.8 6.82 2.78 1.47.52 3.82 1.4 5.24 1.97 1.41.57 3.64 1.26 4.95 1.53s2.7.7 3.09.95c.38.25 1.92.56 3.4.68 1.5.12 3.15.35 3.67.51 1.44.44 7.1 1.6 11.76 2.41 2.3.4 5.21.92 6.5 1.16 1.28.24 2.88.44 3.56.45.67 0 1.57.14 2 .3 1.22.48 6.46 1.13 10.07 1.25 1.83.07 5.35.24 7.82.38 7.36.44 12.1.41 19.42-.1zm-35-3.66c-1.28-.56-2-1.36-3.24-3.61-.86-1.55-.88-1.7-.47-3.39.62-2.6 2.07-3.96 4.74-4.45 2.73-.5 3.93-.12 5.75 1.8a5.96 5.96 0 0 1 1.8 3.29c.41 1.94.16 2.84-1.3 4.8-1.35 1.8-4.96 2.57-7.28 1.56zm4.95-2.16c.56-.3 1.32-2.39 1.32-3.63 0-.4-.51-1.27-1.13-1.93-.95-1.01-1.35-1.2-2.64-1.22-1.3-.03-1.69.13-2.7 1.11-1.36 1.31-1.5 2.27-.58 4.02a4.19 4.19 0 0 0 5.73 1.65zm27.43.46a12.3 12.3 0 0 0-.41-1.45c-.1-.28-.3-1.85-.44-3.5-.36-4.45-.94-9.15-1.29-10.42a3.35 3.35 0 0 1 0-1.92c.26-.7.51-.8 1.96-.8 1.61 0 1.66.03 1.82 1.08.09.6.24 3.1.34 5.57.1 2.48.33 5.02.52 5.66.2.64.44 2.15.55 3.34.2 2.43-.02 2.83-1.8 3.19-.94.18-1.06.11-1.25-.75zm30.28-1.42a7.21 7.21 0 0 1-5.75-5.6c-.26-1.15-.18-1.6.56-3.11a9.37 9.37 0 0 1 2.07-2.72c1.03-.82 1.52-.96 3.54-1.02 2.15-.06 2.47.03 3.79.98 1.47 1.07 1.56 1.17 2.4 3.03.55 1.2.54 1.78-.13 4.36-.34 1.35-.73 1.99-1.63 2.68-1.18.9-2.83 1.74-3.27 1.66l-1.58-.26zm2.35-2.5a4.18 4.18 0 0 0 2.15-3.55c0-.97-.27-1.47-1.4-2.6-2.21-2.18-2.45-2.17-5.48.3-.54.44-.85 2.95-.5 4.15.2.76.56 1.08 1.47 1.33.66.19 1.31.45 1.45.6.39.38 1.3.29 2.3-.23zm-103.9-2.28c-2.36-1.05-3.25-1.97-3.9-4.05-.8-2.51-.23-4.3 1.94-6.18 1.56-1.35 2.27-1.64 4.02-1.65 2.3-.02 5.53 1.6 6.52 3.27.6 1.01.69 1.54.53 3.22-.28 3-.62 3.61-2.73 4.82-2.46 1.4-4.14 1.56-6.38.57zm5.24-2.75c1.13-1.1 1.25-2.15.44-4.16-.98-2.45-3.4-3-5.72-1.3-2.24 1.66-2.29 3.66-.13 5.57 1.1.98 1.4 1.08 2.83.96a3.71 3.71 0 0 0 2.58-1.07zm131.1-4.9c0-.42-.2-1.06-.46-1.42a6.52 6.52 0 0 1-.7-1.49c-.15-.46-.62-1.6-1.05-2.56a9.41 9.41 0 0 1-.79-2.25c0-.29-.13-.78-.3-1.1-.61-1.21-.97-2.3-1.39-4.19a8.66 8.66 0 0 0-1.06-2.75c-.35-.45-.56-1.03-.46-1.28.18-.48 2.19-1.02 2.9-.78.5.17 1.67 3.45 4.16 11.74.5 1.64 1.18 3.65 1.54 4.48.6 1.42.61 1.52.06 1.92-.32.24-1 .43-1.52.43-.75 0-.93-.15-.93-.76zm-171.3-7.84c-.58-.3-1.07-.71-1.07-.9 0-.18.36-1 .82-1.83.46-.82 1.15-2.2 1.54-3.07.39-.87.83-1.58.97-1.58.15 0 .52-.79.84-1.75.3-.96.82-2.05 1.13-2.41.31-.37.84-1.27 1.18-2 .33-.73.95-1.8 1.38-2.36.43-.57.78-1.28.78-1.6 0-.95.88-.95 2.3-.01.89.58 1.27 1.03 1.08 1.27-.3.4-2.83 5.03-3.65 6.7a59 59 0 0 1-1.56 2.82c-.6 1.01-1.78 3.07-2.65 4.58-.86 1.5-1.67 2.73-1.79 2.72-.12-.01-.7-.27-1.3-.58zm197.92-2.96c-2.14-.77-2.69-1.25-3.65-3.18-.56-1.1-1.01-2.25-1-2.54 0-1.59.83-3.23 2.37-4.7 1.65-1.6 1.65-1.6.8-3.28-1.47-2.9-.94-4.46 1.3-3.9.64.16.82.49 1 1.78.12.87.22 1.73.23 1.91.03.88.76 1.45 2.9 2.32 1.77.7 2.55 1.24 3.18 2.14 1.33 1.92 1.67 3.2 1.17 4.46a12.45 12.45 0 0 1-3.78 4.6c-.99.6-3.37.8-4.52.4zm5.07-3.02c1.07-1 1.24-2.88.44-4.8-1.2-2.86-5.7-2.48-7.2.63-.7 1.44-.7 1.44.03 2.94 1.35 2.8 4.47 3.37 6.73 1.23zm-230.94-9.34c-1.1-.31-2.97-1.9-4.1-3.46-2.54-3.5.28-8.45 5.36-9.4 1.52-.28 4.03.83 5.1 2.26 1.6 2.1 1.96 3.5 1.51 5.75-.48 2.41-1.03 3.17-3.14 4.29a6.18 6.18 0 0 1-4.73.56zm4.61-3.58c.83-.8.95-1.12.83-2.37-.28-2.96-2.98-4.8-5.51-3.75-1.23.5-2.53 2.88-2.23 4.08.3 1.17 1.74 2.83 2.64 3.02 1.58.34 3.3-.05 4.27-.98zm218.47-3.54c-.06-.23-.28-.95-.5-1.6-.2-.66-.37-1.4-.37-1.67 0-.26-.22-.89-.48-1.39a9.12 9.12 0 0 1-.7-2.35c-.24-1.61.28-2.36 1.53-2.17.57.09.87.62 1.5 2.6.44 1.38.8 2.8.82 3.17 0 .36.23.95.5 1.31.64.85.62 1.04-.24 1.84-.81.76-1.9.9-2.06.26zm38-3.23c-.05-.18-2.28-2.81-4.93-5.86-2.65-3.04-4.9-5.73-5-5.97a4.4 4.4 0 0 0-1.12-1.2c-.97-.76-.97-.76.15-1.7.62-.5 1.3-.93 1.53-.93.22 0 1.08.8 1.9 1.75 2.64 3.09 5.04 6.04 5.86 7.24.44.64 1.6 2.1 2.57 3.26.97 1.16 1.76 2.26 1.76 2.46 0 .9-2.44 1.74-2.71.95zm-40.66-7.6c-.1-.15-.38-1.16-.65-2.25s-.8-3.16-1.18-4.6c-.39-1.43-.62-2.75-.52-2.9.1-.17.7-.3 1.33-.3 1 0 1.14.1 1.14.84 0 .46.39 1.77.86 2.9.47 1.15.94 2.85 1.04 3.78.16 1.52.1 1.76-.6 2.25-.87.6-1.18.67-1.42.28zm-3.24-12.96c-.2-.5-.58-1.97-.85-3.25a23.45 23.45 0 0 0-1.1-3.7c-.72-1.63-.44-2.12 1.21-2.12.92 0 1.13.14 1.3.91.12.5.5 2.04.87 3.41l.84 3.28c.14.59-.05.99-.74 1.58-.51.44-.99.8-1.05.8-.07 0-.29-.41-.48-.91zm64.48-2.74c-2.81-.9-4.96-5.9-3.76-8.75.76-1.83 4.7-3.98 7.3-3.98 2.64 0 4.96 2.08 5.94 5.3.6 1.97-1.64 6.03-3.8 6.9-1.58.66-4.46.92-5.68.53zm4.71-2.53a5.47 5.47 0 0 0 2.53-3.04c.3-.97-1.16-3.5-2.32-4.04-1.06-.48-1.57-.48-3.21.01-3.25.97-3.15 5.95.14 7.15 1.47.53 1.66.53 2.86-.08zm-321.48 1.03a2.99 2.99 0 0 1-.58-1.27c0-.56 6.92-7.19 8.82-8.43.73-.48 2.08-1.59 3-2.46 2.47-2.36 2.89-2.5 4.12-1.41.57.5 1.03 1.06 1.03 1.25 0 .2-1.14 1.4-2.53 2.67l-4.74 4.35a30 30 0 0 1-3.38 2.72c-.64.39-1.75 1.31-2.48 2.05-1.5 1.54-2.42 1.69-3.26.53zm249.73-7.9c-.22-.21-.4-.8-.4-1.3 0-.49-.45-2.27-1-3.95-.55-1.68-1-3.42-1-3.86 0-.7.15-.8 1.3-.8.7 0 1.43.19 1.62.42.35.45 1.41 6.35 1.41 7.9 0 .88-.72 2-1.29 2-.13 0-.42-.18-.64-.4zm-3.2-12.46c-.1-.34-.7-2.63-1.33-5.1-1.25-4.85-1.2-5.33.5-5.33.81 0 .99.18 1.26 1.25l1.3 4.83c1.05 3.9.99 4.35-.64 4.75-.69.16-.93.07-1.08-.4zM64.4 352.64a6.85 6.85 0 0 1-3.52-3.47c-2.72-5.64 3.07-11.01 8.59-7.96 2.06 1.13 2.05 1.12 2.8 3.34 1.24 3.67.3 6.4-2.73 8.02a5.3 5.3 0 0 1-5.14.07zm4.32-2.85c.47-.31 1.08-1 1.36-1.55.46-.9.46-1.13-.05-2.53-.96-2.6-2.25-3.18-5.24-2.35-1.5.41-2.25 1.65-2.24 3.7.01 1.75.75 2.77 2.33 3.23 1.41.4 2.7.24 3.84-.5zm263.27 2.95c-.08-.14-.33-1.07-.55-2.08-.23-1-.77-2.93-1.21-4.28-.44-1.35-.8-3.12-.8-3.93 0-1.48 0-1.48 1.52-1.38 1.53.1 1.53.1 2.17 1.92.35 1 .64 2.29.64 2.86 0 .58.2 1.48.47 2.01.26.53.58 1.68.7 2.55.2 1.34.15 1.58-.32 1.58-.3 0-.99.22-1.52.5-.53.27-1.02.38-1.1.25zm99.7-3.28a7.34 7.34 0 0 1-3.3-3.37c-.54-1.25-.61-4.61-.12-4.92.18-.11.55-.71.8-1.33.67-1.6 3.4-2.97 5.31-2.67 2.04.32 4.27 1.53 5.1 2.78a7.02 7.02 0 0 1 .8 5.33c-.39 1.27-2.54 3.79-3.56 4.18-1.41.54-3.98.54-5.04 0zm5.22-3.07a4.33 4.33 0 0 0 1.23-1.8c.35-1.03.31-1.39-.25-2.55-.78-1.62-1.47-2.03-3.42-2.03-1.28 0-1.62.16-2.51 1.18-1.68 1.9-1.22 4.4 1.07 5.73.92.53 2.79.28 3.88-.53zm-108.1-7.96c-.17-.32-.64-2-1.04-3.74-.4-1.74-.92-3.8-1.17-4.56-.54-1.66-.3-1.96 1.75-2.3 1.32-.2 1.39-.17 1.56.74.1.53.5 2.25.86 3.83.38 1.58.76 3.49.85 4.24.15 1.3.11 1.38-1.06 1.86-1.49.63-1.38.63-1.75-.07zm-145.71-10.8c-.4-.49-.67-4.05-.95-12.58-.1-3.2-.3-6.27-.46-6.82-.41-1.52-.42-5.5 0-6 .32-.4 4.37-.62 9.46-.52.55 0 1.56-.14 2.26-.32 2.46-.67 6.66 1.64 8.71 4.77.36.54.58 1.64.62 3.02.05 1.8-.06 2.33-.68 3.1-1.95 2.44-1.93 2.38-1 3.37 1.06 1.12 2.25 3.6 2.25 4.65 0 1.72-1.08 4.52-2.12 5.48-1.93 1.79-2.24 1.85-10.24 2.08-5.97.17-7.57.12-7.85-.23zm11.06-3.96c3.56-.02 3.97-.15 4.43-1.42 1.46-4.05-1.07-5.91-7.76-5.72-5.14.15-4.59-.27-4.36 3.32.28 4.43.2 4.3 2.83 4.05 1.2-.12 3.4-.22 4.86-.23zm3.21-11.32c.88-.63.95-.83.95-2.97 0-2.11-.07-2.35-.88-2.87-1.46-.96-4.49-1.42-7.18-1.08-1.32.17-2.68.22-3.01.11-1.3-.41-1.6.39-1.39 3.82.11 1.76.24 3.35.3 3.53.06.2 1.99.3 5.18.23 4.48-.09 5.2-.18 6.03-.77zm67.02 14.38c-.12-.2-.5-.36-.83-.36-.88 0-1.99-.69-3.61-2.23-2.66-2.52-2.53-5.17.28-6.1 1.33-.44 1.43-.42 2.02.3.34.43.62 1.12.62 1.54 0 1.13 1.97 2.7 3.71 2.95 1.67.25 4.7-.69 5.48-1.69 2.04-2.65-.4-5.97-4.48-6.06a6.3 6.3 0 0 1-2.33-.67c-.67-.35-2.1-.9-3.2-1.22-2.53-.73-3.68-1.53-4.48-3.09-.75-1.47-.49-3.61.73-6 .79-1.56 3.98-4.35 4.97-4.36.31 0 .66-.15.77-.33.27-.43 4.07-.42 6.82.02 1.67.27 2.4.58 3.2 1.35 1.42 1.38 1.88 3 1.26 4.47-.4.97-.64 1.15-1.53 1.15-.8 0-1.37-.34-2.46-1.48-1.52-1.59-3.4-2.25-4.47-1.58a6.9 6.9 0 0 1-1.86.6c-2.14.39-2.8 1-2.8 2.6 0 .93.23 1.63.66 2.1.77.83 3.2 1.65 5.57 1.9 1.85.19 4.43 1.08 4.43 1.53 0 .15.33.38.75.5.96.29 2.82 2.05 3.46 3.26.65 1.25.52 4.7-.24 6.21-1.03 2.07-4.24 4.4-6.24 4.52-.67.04-2.3.18-3.6.3-1.59.16-2.45.11-2.6-.13zm-27.24-.96c-.31-.34-.57-.83-.58-1.1-.01-.25-.43-1.66-.93-3.13-.9-2.66-.9-2.66-2.06-2.59-1 .07-5.32.3-7.53.4-.56.02-.84.38-1.22 1.6-.27.88-.59 2.1-.7 2.73-.3 1.69-1.05 2.35-2.67 2.35-2.5 0-2.75-1.13-1.18-5.2.55-1.43 1-2.96 1-3.4 0-.45.5-2.25 1.13-4a43.1 43.1 0 0 0 1.52-5.37 17.1 17.1 0 0 1 1.03-3.51c.35-.75.64-1.59.64-1.87s.31-.91.7-1.4c.63-.8.88-.87 3.11-.87 2.43 0 2.43 0 3.45 2.41a38.71 38.71 0 0 1 1.24 3.25c.13.45.58 1.45 1.02 2.22.44.76.8 1.63.8 1.92 0 .29.36 1.24.8 2.1.45.87 1.22 2.55 1.7 3.74.5 1.19 1.18 2.8 1.53 3.56.34.77.63 1.5.63 1.63 0 .13.53 1.04 1.19 2.02 1.7 2.57 1.53 2.92-1.55 3.04-2.1.08-2.6 0-3.07-.53zm-4.06-10.39c.08-.13-.13-.82-.47-1.53a146.6 146.6 0 0 1-2.81-6.2c-.28-.69-.66-1.25-.84-1.25-.32 0-.92 1.51-1.2 3.03a24.4 24.4 0 0 1-1.37 5c-.24.48-.36.95-.27 1.04.27.27 6.8.18 6.96-.09zm60.42 8.87a2.64 2.64 0 0 1 .02-1.84c.2-.6.27-2.53.15-4.93-.11-2.16-.19-4.22-.17-4.6.07-1.37.06-1.73-.12-4.98-.1-1.83-.29-4.33-.42-5.54-.21-2.02-.17-2.25.46-2.58.37-.2 1.29-.37 2.03-.37 2.18 0 2.41.64 2.55 7.24.16 7.71.38 11.8.8 14.7.44 3.12.2 3.43-2.81 3.62-2.08.14-2.18.1-2.5-.72zm29.55.37c-.12-.2-.37-10.82-.28-11.98.02-.23-.06-1.46-.19-2.75-.12-1.28-.06-3.44.13-4.8.2-1.36.29-2.57.21-2.7-.07-.12-1.21-.01-2.53.24a9.95 9.95 0 0 1-2.55.29c-.08-.09-.43 0-.77.17-.73.4-.94-.2-1.05-2.95-.08-1.77-.08-1.77 6.41-1.88 3.57-.06 7.73-.22 9.24-.36 2.74-.25 2.74-.25 2.74 1.79 0 2.62-.42 2.89-4.09 2.58-2.96-.24-3.8.07-3.2 1.19.37.7 1.38 11.4 1.32 14a9.43 9.43 0 0 1-.32 2.33c-.17.47-.1 1.23.18 2.04.24.7.36 1.64.25 2.08-.2.75-.33.8-2.83.8-1.44 0-2.65-.04-2.67-.1zm-.47-23.52c.1-.17.04-.4-.14-.52-.19-.11-.34.02-.34.31 0 .58.2.67.48.2zm-274.7 12.7c-2.45-1.24-3.1-2.42-3.12-5.7-.02-2.35.06-2.64 1.08-4.07 1.36-1.9 2.19-2.29 4.76-2.29 3.4 0 4.82 1.05 5.8 4.27.93 3.07.37 5.82-1.4 6.9-.53.32-1.36.85-1.85 1.2-1.29.87-3.16.77-5.27-.3zm4.82-2.77c1.47-1.3 1.79-2.74 1.02-4.74-.63-1.65-1.51-2.22-3.46-2.22-1 0-1.5.25-2.46 1.2-1.14 1.15-1.2 1.3-1.07 3.08.12 1.58.3 2.02 1.16 2.8 1.45 1.3 3.24 1.26 4.8-.12zm398.01-3.14c-.73-.25-2.6-.77-4.16-1.15-1.55-.38-3.72-1-4.82-1.37a93.54 93.54 0 0 0-6.4-1.96c-1.74-.45-2.14-1.11-1.63-2.67.38-1.13.44-1.16 1.98-1.08.87.05 2.02.3 2.55.58.54.28 1.47.5 2.08.5.61 0 1.7.3 2.42.67.72.36 1.58.66 1.91.66.34 0 1.17.28 1.84.62.68.34 2.21.8 3.4 1.05 1.2.24 2.32.54 2.5.67.18.14.82.35 1.41.48.93.2 1.08.37 1.08 1.23 0 2.26-1.22 2.78-4.16 1.77zm5.97-39.89c-2.74-.74-4.81-3.02-4.8-5.26.02-1.44.99-4.24 1.84-5.31a5.36 5.36 0 0 1 6.28-1.48 7.32 7.32 0 0 1 2.29 2c2.78 3.64 1.55 8.3-2.64 10.06-1.22.5-1.1.5-2.97 0zm3.6-2.85c1.27-1 1.69-2.34 1.36-4.4-.27-1.72-.32-1.78-1.7-2.22-1.65-.52-3.35-.3-4.43.57-.56.46-.78 1.06-.9 2.51-.15 1.8-.1 1.97.95 3.05.91.94 1.35 1.14 2.5 1.14.87 0 1.69-.24 2.21-.65zm-422.04 1.68c0-.54-.08-1.2-.18-1.46-.14-.37.22-.53 1.58-.68 2.7-.32 7.13-.62 10.08-.7 1.47-.04 3.6-.25 4.75-.47 1.15-.22 2.64-.43 3.32-.47 1.23-.08 1.23-.08 1.5 1.55.16.9.16 1.75.02 1.88-.15.14-4.02.34-8.61.46-4.59.11-8.85.35-9.48.53-.63.18-1.55.33-2.06.33-.8 0-.92-.13-.92-.97zm141.23-3.02c-.58-.23-.74-.67-.93-2.52-.27-2.64-.54-7.13-.67-11.3-.06-1.64-.2-4.86-.34-7.15-.13-2.29-.1-4.34.05-4.56.22-.31.95-.32 3.27-.03 2.88.37 3 .42 3.76 1.56.43.64.9 1.85 1.04 2.68.14.84.57 2.24.96 3.12.4.89.72 1.81.72 2.06 0 .24.37 1.19.83 2.1.45.9.83 1.86.84 2.1 0 .25.29.82.64 1.28.63.82.63.82.94 0 .7-1.85 1.15-3.25 1.58-4.99.26-1 .78-2.65 1.17-3.66.84-2.2.81-2.1 1.13-4.06a6.6 6.6 0 0 1 .65-2.1c.47-.64 4.48-1.24 5.08-.77.59.47.84 2.4.96 7.27.16 6.97.47 13.99.68 15.64.17 1.32.1 1.6-.68 2.32-.83.77-.94.8-1.78.32-.87-.5-.9-.6-.98-3.82-.04-1.82-.09-6.18-.1-9.68-.03-8.41-.47-10.13-1.68-6.45-.33 1.01-.84 2.88-1.14 4.16-.94 4-1.53 6.23-2.36 8.93-.43 1.42-.8 2.91-.8 3.3 0 1.05-.72 2.87-1.22 3.06-.89.34-1.38-.25-2.11-2.5-.41-1.28-.87-2.4-1.03-2.5-.16-.1-.3-.44-.3-.75 0-.32-.83-2.6-1.85-5.06-2.47-5.92-2.77-6.72-2.79-7.3 0-.28-.33-1.03-.73-1.67-.64-1.05-.73-1.1-.95-.5a3.78 3.78 0 0 0-.12 1.5c.15 1.09.41 4.44.8 9.98.17 2.47.47 5.45.66 6.6.3 1.79.28 2.25-.16 2.92-.55.84-1.7 1.01-3.04.47zm260.07-.38c-.27-.52-.28-.92-.01-1.5.36-.8.36-.8 5.1-.59 2.62.12 5.01.35 5.34.52.86.45.75 1.83-.17 2.05-.41.09-2.8.18-5.31.2-4.33.03-4.59 0-4.95-.68zm-20.32.21c-.1-.08-1.26-.2-2.6-.25-2.09-.07-2.47-.18-2.68-.75a2.4 2.4 0 0 1 .04-1.42c.27-.73.4-.75 4.36-.71 4.98.05 5.25.11 5.25 1.18 0 1.65-.53 2.12-2.45 2.12-.97 0-1.83-.08-1.92-.17zm8.93-.07c-.7-.18-1.3-1.52-1.02-2.26.17-.42.87-.48 4.4-.37 2.32.07 4.47.24 4.8.37.35.14.57.6.57 1.15 0 .86-.1.93-1.74 1.13-1.95.23-6.08.22-7.01-.02zm-27.02-.36c-1.05-.22-1.5-.74-1.5-1.77 0-.73.2-1 .8-1.15 1.16-.3 8.5.03 8.86.4.17.16.35.82.4 1.46.1 1.16.1 1.16-3.9 1.18-2.2 0-4.3-.05-4.66-.12zm-187.63-.63c-.39-.39-.23-1.43.4-2.7.34-.68.88-2.4 1.2-3.84.31-1.44.8-3.16 1.1-3.83.28-.67.63-1.82.77-2.55.7-3.66 2.98-11.06 3.84-12.4.38-.6.78-.74 2.1-.74 1.67 0 2.28.47 2.77 2.16.54 1.88 2.37 6.74 3.75 9.98.85 2.02 2 4.79 2.54 6.16s1.35 3.2 1.8 4.07c.93 1.82 1.06 3.42.28 3.71-.91.36-3.04.22-3.39-.2-.18-.24-.6-1.4-.92-2.59a21.92 21.92 0 0 0-1.42-3.75c-.85-1.6-.85-1.6-2.37-1.35-.84.14-2.42.22-3.52.18-3.55-.1-3.24-.43-4.69 4.92a13.14 13.14 0 0 1-.9 2.58c-.32.43-2.95.58-3.34.2zm11.18-10.75c1.57 0 1.64-.05 1.42-.75-.13-.42-.32-1.2-.42-1.75a5.6 5.6 0 0 0-.6-1.66 31.13 31.13 0 0 1-1.95-5.6c-.32-1.36-1-.92-1.24.8a37.59 37.59 0 0 1-1.47 6.72 7.22 7.22 0 0 0-.48 1.95c0 .65.12.7 1.54.5.85-.12 2.29-.21 3.2-.21zm21.29 10.72c-.32-.22-.47-2.2-.59-7.59-.09-4.01-.31-8.12-.5-9.14-.17-1.02-.39-3.19-.47-4.83-.2-4.15-.07-4.3 3.87-4.63 4.08-.34 6.9-.35 7.9-.02 1.08.35 4.94 2.85 6.12 3.96 1.18 1.11 2.45 3.95 3.06 6.86.49 2.32.43 3.1-.6 7.52-.57 2.5-2.66 5.5-4.28 6.13-.61.24-1.77.73-2.57 1.08-1.16.51-2.5.68-6.49.8-2.77.09-5.22.03-5.45-.14zm8.74-3.92c3.16-.3 4.25-1.02 5.45-3.58a10.7 10.7 0 0 0 1.04-7.14c-.59-3.74-1.2-5.11-2.76-6.26-1.7-1.25-2.94-1.67-6.3-2.12-3.7-.5-3.69-.5-3.44 2.94.11 1.58.33 5.86.48 9.52.15 3.66.3 6.68.32 6.72.12.14 1.92.32 2.38.24.28-.05 1.55-.2 2.83-.32zm108.49 3.85a12.37 12.37 0 0 0-2.75-.09c-.23.09-.8-.1-1.27-.4-.63-.4-.82-.8-.75-1.45.1-.9.1-.9 6-.95 4.15-.04 5.97.06 6.2.33.17.22.23.88.14 1.47-.16 1.07-.18 1.08-2.04 1.09-1.03 0-2.17.06-2.54.12-.37.07-1.71.02-3-.12zm10.44-.22c-.55-.66.05-2.58.86-2.73.35-.07 2.47-.02 4.72.11 4.09.24 4.09.24 4.3 1.39.12.63.16 1.2.09 1.27-.07.08-2.26.2-4.86.28-3.78.12-4.8.06-5.11-.32zm12.94-.2c-.73-.72-.74-1.05-.07-1.72.44-.45 1.22-.5 5.24-.32 2.6.12 4.98.35 5.3.51.36.19.59.69.59 1.31 0 1 0 1-5.23.91-4.5-.08-5.32-.17-5.83-.68zm-107.23-.57c-.4-.45-.54-1.95-.66-7.73-.09-3.94-.3-8.12-.48-9.3a85.4 85.4 0 0 1-.54-5c-.24-3.22-.19-3.32 2.2-3.77 1.53-.29 1.95.22 2.34 2.9l.65 4.42c.19 1.28.4 5.25.47 8.82.07 3.56.19 7.06.26 7.76.07.74-.02 1.33-.23 1.39l-1.94.58c-1.42.44-1.62.43-2.07-.07zm24.3.35c-.16-.26-.92-.3-2.34-.16-1.93.2-2.14.15-2.5-.51-.21-.4-.44-2.79-.53-5.45-.35-11.46-.47-14.53-.64-16.87-.27-3.55-.13-3.67 4.38-3.93 6.1-.35 7.93-.2 9.76.8 1.67.9 3.66 3.04 3.66 3.92 0 .28.2.62.43.77 1.1.7 1.7 8.3.98 12.78-.38 2.42-1.6 5.04-2.88 6.23-1.54 1.43-3.17 2.36-4.1 2.36-.5 0-2.06.1-3.45.21-1.75.16-2.61.1-2.77-.15zm4.3-3.7c1.92-.29 2.51-.53 3.43-1.41 1.86-1.81 2.15-2.67 2.54-7.55.08-1-.05-2.57-.3-3.5-.6-2.32-2.14-6.06-2.66-6.5-.44-.36-4.53-.84-7.1-.82-.9 0-1.55.2-1.73.5-.27.43-.13 11.46.15 11.95.06.1-.01 1.57-.15 3.27-.36 4.26-.3 4.4 1.79 4.4.94-.01 2.75-.16 4.03-.35zm23.93 3.53c-.1-.25-.13-.96-.07-1.58.1-1.11.1-1.11 5.1-1.17 5.81-.07 6.34 0 6.84.93.3.56.27.82-.17 1.25-.45.45-1.27.53-5.17.47-2.71-.04-4.72.06-4.84.25-.3.49-1.49.38-1.69-.15zm14.81-.22c-.67-.68-.78-1.22-.37-1.87.22-.34 4.69-.4 8.64-.13.46.03.58 1.88.14 2.15-.15.1-1.96.24-4.02.33-3.37.13-3.82.09-4.39-.48zm-25.36-.35c-.79-.3-.92-.52-.83-1.4.1-1.05.1-1.05 3.43-1.1 3.4-.05 4.16.17 4.16 1.21 0 .32-.19.74-.42.93-.62.5-5.25.77-6.34.36zM39.04 239.67c-2.18-1.06-2.59-1.54-3.44-4.07-.7-2.1-.7-2.1.02-3.76 1.06-2.47 2.83-3.84 5.3-4.12 1.79-.2 2.17-.13 3.7.7 2.26 1.24 3.44 3.01 3.4 5.12a7.37 7.37 0 0 1-3.24 5.87c-1.97 1.34-3.36 1.4-5.74.26zm4.2-2.57c1.66-.95 2.12-2 1.7-3.87-.32-1.43-.77-1.96-2.46-2.89-.72-.4-1.18-.43-2.16-.16-1.64.46-1.88.64-2.55 1.96-1.09 2.11-.04 4.71 2.14 5.32 1.7.48 1.9.46 3.33-.36zm398.32-5.19c0-1.76.44-2.05 3.19-2.05 1.3 0 3.19-.16 4.17-.35 1.65-.33 11.04-1.32 12.92-1.36.93-.02 1.69.83 1.69 1.9 0 .68-.21.75-2.42.93-1.32.1-3.3.34-4.4.54-1.1.19-3.46.48-5.24.65-1.78.17-3.38.4-3.56.5-.17.11-1.67.26-3.33.34-3.02.15-3.02.15-3.02-1.1zM56.38 214.88a27.24 27.24 0 0 0-4.16-.63c-.82-.02-2.47-.34-3.66-.71a37.73 37.73 0 0 0-3.83-.98c-3.93-.7-4.49-.97-4.49-2.13 0-.4.23-1.05.52-1.46.54-.77 1.26-.79 3.64-.09.55.16 2.05.47 3.33.7 1.28.21 2.7.52 3.16.67.91.31 4.85.91 8.48 1.3 1.29.12 2.74.4 3.24.61.83.34.88.46.56 1.3-.86 2.28-1.95 2.5-6.79 1.42zm392.67-9.6c-2.03-1.26-2.78-2.41-3.2-4.87-.51-2.99-.2-4.55 1.19-6.1 1.75-1.93 5.42-2.65 7.99-1.58 2.6 1.09 3.94 5.41 2.69 8.7-1.29 3.35-6.06 5.48-8.67 3.85zm6.04-4.28c.9-1.18 1.03-1.57.8-2.37-.72-2.5-1.62-3.35-3.56-3.37-1.07 0-1.61.21-2.41.96-1.23 1.14-1.3 2.03-.3 3.64 1.95 3.16 3.66 3.51 5.47 1.14zm-266.75-1.24c-.2-.24-.35-1.02-.32-1.72.02-.71-.04-2.56-.14-4.12-.1-1.55-.28-5.67-.4-9.15-.11-3.48-.3-6.42-.43-6.54-.12-.12-1.27-.08-2.55.1-4.6.62-4.32.71-4.42-1.38-.04-1 .06-2.04.23-2.3.25-.39 2.02-.5 9.46-.6 9.04-.14 9.16-.13 9.53.56.2.39.33 1.33.27 2.1-.1 1.4-.1 1.4-3.46 1.29-5.06-.18-4.73-.53-4.6 4.87.19 7.68.5 13.14.87 14.83.18.89.21 1.73.05 1.87-.56.51-3.7.66-4.1.2zm17.65-.29c-.3-.3.42-2.93 2-7.38a30.08 30.08 0 0 0 1.15-3.99c.12-.73.43-1.93.7-2.66.28-.73.63-1.93.8-2.66.16-.74.54-2.16.83-3.17.3-1 .7-2.5.9-3.32.21-.83.5-1.59.66-1.7.16-.1 1.37-.18 2.68-.17 2.4.04 2.4.04 3.35 3.03 1.43 4.47 2.83 8.14 3.74 9.78.44.8.8 1.7.8 2 0 .29.28.99.61 1.54.34.55.8 1.58 1.04 2.29.23.7.86 2.11 1.4 3.13 1.4 2.68 1.23 3.2-1.11 3.32-1.72.1-1.9.03-2.12-.66a4.25 4.25 0 0 0-.66-1.27 4.42 4.42 0 0 1-.65-1.58c-.13-.6-.44-1.5-.7-2.01-.46-.93-.46-.93-5.2-.87-4.76.06-4.76.06-5.53 2.84a17.46 17.46 0 0 1-1.1 3.17c-.39.47-3.2.74-3.6.34zm13.6-9.97c0-.4-.6-2.08-1.32-3.71-.73-1.64-1.33-3.32-1.33-3.73 0-.95-1.05-3.1-1.51-3.1-.2 0-.55.92-.79 2.07a47.26 47.26 0 0 1-1.72 6.17c-.17.42-.3 1.28-.3 1.9 0 1.14 0 1.14 3.49 1.13 3.38 0 3.5-.03 3.49-.73zm22.8 9.74c-1.08-.4-1.44-1.05-1.98-3.6a18.03 18.03 0 0 0-1-3.38 4.47 4.47 0 0 1-.5-1.57c0-.33-.36-1.27-.8-2.1-.43-.82-1.48-3.29-2.34-5.48a95.42 95.42 0 0 0-2.04-4.94 4.35 4.35 0 0 1-.48-1.42c0-.27-.24-.85-.53-1.3-.84-1.28-.33-1.6 2.15-1.38 2.64.25 3.2.8 3.54 3.53.12 1.02.59 2.73 1.03 3.82.44 1.08.8 2.24.8 2.56 0 .33.14.94.3 1.36.18.42.4 1.15.5 1.62.1.46.53 1.27.97 1.78.8.93.8.93 1.04-.36.13-.7.36-1.43.5-1.61.33-.43 1.37-4.74 1.4-5.82.01-.46.23-2.03.48-3.5.54-3.1 1.38-4.16 3.3-4.16 1.38 0 1.91.71 2.48 3.33.42 1.96 1.5 5.94 2.22 8.24.24.77.54 2.05.66 2.82.4 2.62 1.24 3.4 1.61 1.5.12-.6.43-1.99.7-3.1a90.3 90.3 0 0 0 1.5-7.8c.02-1.5.8-4.55 1.25-4.9.7-.56 2.44-.53 3.24.05.9.66.74 3.45-.37 6.4a45.2 45.2 0 0 0-2.13 7.94l-.58 3c-.1.54-.32 1.15-.47 1.35-.16.2-.44 1.45-.63 2.78-.93 6.53-4.75 5.44-5.16-1.48-.01-.18-.12-.5-.25-.7-.2-.32-1.96-5.3-2.98-8.45-.2-.64-.43-1.68-.5-2.32-.11-1-.54-1.65-1.1-1.67-.25 0-1.04 3.5-1.22 5.32-.07.83-.27 1.88-.43 2.33-.16.46-.46 1.66-.67 2.67-.2 1-.52 2.46-.7 3.24-.16.79-.3 1.89-.3 2.45 0 1.05-.86 2.83-1.48 3.07-.2.07-.66.02-1.03-.12zm33.72-.64c-.73-.6-.77-.83-.79-5.4-.02-4.84-.33-10.4-.66-11.92-.46-2.14-.81-4.6-.81-5.76 0-2.47 2.67-3.76 4.65-2.24.83.64.84.67 1.05 7.73.11 3.9.3 7.31.4 7.59.12.27.27 1.55.35 2.83.08 1.28.25 3.16.38 4.19.22 1.79.2 1.89-.72 2.53-1.46 1.02-2.93 1.2-3.85.45zm19.62-.28c-.5-.06-1.07-.4-1.25-.73-.18-.34-.32-2.69-.32-5.22.02-5.74-.29-11.5-.69-13.26-.37-1.59-.41-5.5-.07-6.02.45-.67 1.68-1.13 3.03-1.13 1.03 0 1.48.2 2 .86.66.83.68 1.24.6 11.1-.1 10.25-.1 10.25.76 10 1.1-.3 8.9-.02 9.93.38.64.24.76.45.57 1.04-.12.41-.23 1.02-.22 1.34.02.94-1.21 1.19-5.14 1.05-2-.07-4.08 0-4.63.17-1.28.37-3.4.57-4.57.42zm15.94-.96c-.54-.54-.16-1.77.75-2.42a4.38 4.38 0 0 1 1.22-.68c.14 0 .87-.3 1.61-.65.75-.36 1.8-.7 2.33-.75.85-.09 1 .03 1.26 1 .48 1.82-.7 2.71-4.42 3.35-2.58.44-2.47.43-2.75.15zm9.82-3.27c-.8-1.77-.17-2.92 1.77-3.25.55-.09 2.05-.56 3.33-1.06 1.28-.5 2.55-.93 2.82-.96.27-.03.8.52 1.16 1.21.68 1.27.68 1.27-.2 2.04-.51.44-1.57.87-2.5 1.01-.88.13-2.12.5-2.77.83-.64.33-1.63.7-2.2.82-.87.19-1.07.1-1.4-.64zm11.6-3.66c-.48-1.23-.43-1.65.24-2.23.73-.63 6.2-2.52 7.7-2.66 1.16-.1 1.23-.05 2.14 1.96.5 1.07.5 1.07-.76 1.72-.7.36-2.59.9-4.21 1.19l-3.87.72c-.76.15-.97.04-1.25-.7zm13.13-3.61a7.03 7.03 0 0 1-.5-1.54c0-.63 1.33-1.67 2.13-1.67.43 0 .96-.21 1.18-.47a5.26 5.26 0 0 1 2.12-.86c.95-.2 2.44-.55 3.3-.75 1.58-.38 1.58-.38 2.74.93.63.72 1.16 1.4 1.17 1.52 0 .12-.48.3-1.07.42-.6.12-1.68.5-2.41.86-1.28.62-5.84 2.2-7.4 2.57-.63.15-.85-.03-1.26-1.01zm13.69-3.5c-.7-.78-.69-1.8.04-2.64.53-.61 5.6-2.4 6.82-2.4.58 0 1.43.92 1.7 1.83.16.53-.05.78-1.04 1.23-.68.3-1.82.65-2.53.77-.7.12-1.53.35-1.83.5-2.28 1.26-2.6 1.33-3.16.7zm11.07-3.96c-.62-1.59.18-2.47 2.88-3.2 1.27-.33 2.99-.83 3.81-1.1 2.14-.7 3.23-.88 3.41-.55.1.15.26.81.38 1.46.2 1.11.14 1.22-.97 1.75-.65.31-1.35.56-1.56.56-.21 0-1 .3-1.74.65-1.12.53-4.5 1.35-5.58 1.35-.15 0-.44-.41-.63-.92zm-318.08-1.1c-.81-.54-1.9-1.63-2.43-2.4-.85-1.26-.94-1.64-.84-3.6.09-1.76.3-2.48 1.02-3.53 1.48-2.14 4.79-3.53 7.04-2.96 1.08.27 3.07 2.02 3.71 3.26.49.93.7 3.96.4 5.51-.2 1.05-2.77 3.67-4.17 4.26-1.76.73-3.08.58-4.73-.53zm4.47-2.78c4.13-1.72 1.33-8.27-2.94-6.86-2.1.69-3.08 2.35-2.55 4.31.68 2.52 2.99 3.6 5.49 2.55zm327.39.41c-1.11-1.38-.72-2.93.74-2.93.42 0 1.42-.27 2.21-.6 1.79-.75 5.76-1.54 6.43-1.28.52.2.67 1.47.25 2.04-.33.45-1.97 1.07-5.4 2.07l-3.36.98a.88.88 0 0 1-.87-.28zm11.54-3.79a4.97 4.97 0 0 1-.33-1.33c0-.7 1.99-1.8 3.26-1.8.6 0 2.27-.54 3.7-1.2 1.44-.65 2.97-1.14 3.4-1.08.7.1.8.29.8 1.6 0 1.75-.54 2.13-3.75 2.73-1.05.2-2.22.49-2.58.65-1.08.46-3.55 1.29-3.88 1.29-.16 0-.44-.39-.62-.86zm14.96-4.5c-.57-1.38-.15-2.01 1.72-2.57.8-.24 1.76-.58 2.13-.74a46.76 46.76 0 0 1 5.16-1.75c.56-.07.82 1.08.51 2.31-.25 1-2.01 2.12-3.37 2.12-.56 0-1.94.37-3.07.83a16.9 16.9 0 0 1-2.35.83c-.16 0-.49-.46-.73-1.04zm13.55-3.18c-.12-.12-.22-.72-.22-1.32 0-1.32.29-1.5 3.75-2.29 2.57-.6 2.57-.6 2.58-2.46 0-2.79 1.32-4.68 4.29-6.13 1.62-.8 5.4-.77 6.14.05.3.33.55.78.55 1 0 .21.52.89 1.17 1.5 1.17 1.1 1.17 1.1.62 3.57-.76 3.44-1.03 4.09-2.17 5.18-.9.85-1.26.96-3.55 1.05-2.46.1-2.64.06-4.32-1.06-2.04-1.36-2.66-1.34-5.9.19-2.07.97-2.56 1.1-2.94.72zm13.92-2.65c.37-.1 1.01-.62 1.44-1.15.64-.8.7-1.07.38-1.67-.3-.54-.3-.93 0-1.58.37-.8.3-.96-.67-1.83-.98-.88-1.21-.94-2.77-.74-2.47.32-3.37 1.32-3.35 3.68.02 1.53.16 1.93.93 2.65.92.85 2.48 1.1 4.05.64zM81.8 159.2c-.44-.44-2-1.43-3.46-2.2a30.48 30.48 0 0 1-3.17-1.87c-.28-.25-1.63-.99-3-1.65a74.7 74.7 0 0 1-6.34-3.42 13.62 13.62 0 0 1-2.44-1.7c-.55-.61-.54-.7.18-1.67.41-.56.91-1.01 1.1-1 .2 0 2.16.97 4.35 2.14 2.2 1.17 4.97 2.6 6.16 3.16 1.2.56 2.39 1.16 2.66 1.33 1.37.84 5.57 3.2 6.08 3.4.32.14.58.38.58.54 0 .56-1.42 3.72-1.66 3.72-.14 0-.6-.35-1.04-.78zm325.35-22.54c-1.36-1.62-1.58-1.3 3.94-5.47 1.08-.82 2.1-1.5 2.24-1.5.3 0 3.92-2.52 6.94-4.82 1-.77 2.17-1.51 2.6-1.64.89-.28 2.72.36 2.72.95 0 .4-2.75 3.19-3.14 3.19-.11 0-1.57 1.2-3.23 2.66a38.38 38.38 0 0 1-5.12 3.84 22.92 22.92 0 0 0-3.54 2.5c-.8.72-1.7 1.31-2 1.31-.3 0-.94-.46-1.4-1.02zm-325.71-9.34c-1.27-.55-1.74-1.01-2.45-2.39a4.85 4.85 0 0 1-.7-3.52c.25-2.45.95-3.3 3.95-4.8 2.54-1.26 2.54-1.26 4.81-.3 1.99.82 2.37 1.13 3.02 2.41.48.93.75 2.07.75 3.09 0 1.4-.2 1.86-1.41 3.43-1.15 1.47-1.65 1.85-2.67 2.01-.7.12-1.34.34-1.44.5-.3.5-2.24.29-3.86-.43zm4.74-2.3c1.8-1.56 2.48-3.74 1.66-5.29-.8-1.5-5.35-2.06-6.24-.77-.22.33-.56.77-.76 1-.76.9-.76 2.35.01 3.65.42.7.99 1.45 1.27 1.68.82.67 3.16.51 4.06-.27zm313.6-14.07a6.56 6.56 0 0 1-3.98-4.02c-.56-1.87-.64-3.4-.19-3.67.17-.1.4-.62.52-1.15.26-1.19 2.13-3.16 3.4-3.6.51-.18 2.1-.36 3.51-.4 2.21-.06 2.58.01 2.58.48 0 .3.31.95.7 1.44 1.5 1.94 3.3 4.51 3.3 4.74 0 .13-.6 1.03-1.33 2a31.8 31.8 0 0 0-1.41 1.97c-.05.12-.91.76-1.92 1.43-1.95 1.31-3.29 1.51-5.17.78zm4.39-3.39c2.22-1.7 2.13-4.3-.22-6.27-1.25-1.05-1.93-1.09-3.65-.2-1.8.91-2.12 1.62-1.68 3.75.44 2.1.58 2.32 1.85 3 1.42.76 2.43.68 3.7-.28zm-298.04-5.06c-.99-.38-2.6-1.8-3.46-3.03-2-2.9-.12-8.2 3.17-8.9 4.92-1.04 8.6 1.47 8.6 5.87 0 1.47-.17 1.93-1.24 3.3-1.76 2.23-3.05 3-4.99 2.98a9.2 9.2 0 0 1-2.08-.22zm4.05-3.17a4.37 4.37 0 0 0 1.6-3.24c0-1.18-.63-2.46-1.6-3.25-.56-.44-3.66-.56-4.23-.16-1.3.94-1.93 3.95-1.14 5.42.76 1.42 4.16 2.2 5.37 1.23zm261 .9c-1.32-1.33-1.26-1.78.5-3.25.55-.47 1-1 1-1.18 0-.19.3-.55.66-.8a41.3 41.3 0 0 0 3.37-3.6c6.09-7.02 6.67-7.62 7.34-7.62.75 0 2.6.9 2.6 1.26 0 .13-.67 1.01-1.5 1.96-.82.94-1.49 1.8-1.49 1.93 0 .12-.49.72-1.08 1.33-2.2 2.25-3.25 3.49-3.25 3.8 0 .19-.97 1.35-2.15 2.6-1.19 1.24-2.16 2.43-2.16 2.64-.01.43-1.89 2.11-2.36 2.11-.16 0-.82-.53-1.47-1.18zm-221.1-14.87c-.38-.78-1-1.94-1.4-2.58-.4-.64-1.2-2.07-1.79-3.16a45.4 45.4 0 0 0-1.86-3.18 91.6 91.6 0 0 1-1.96-3.1 135.1 135.1 0 0 0-2.42-3.82 10 10 0 0 1-1.24-2.27c0-.22.52-.71 1.15-1.1 1.13-.7 1.84-.68 1.84.06 0 .2.35.83.79 1.4.43.56.88 1.36 1.01 1.76.13.41.57 1.01.97 1.34.4.33 1.1 1.34 1.56 2.25.45.9 1.14 2.02 1.52 2.49.38.46.8 1.06.91 1.34.12.27 1.26 2.07 2.53 4 2.3 3.48 2.3 3.48 1.43 4.15-.48.36-1.1.92-1.38 1.25-.72.84-.91.74-1.67-.83zm214.95-4.14c-2.2-.74-4-2.28-4-3.4 0-.2-.14-.37-.32-.37-.5 0-1.03-2.45-.8-3.7.47-2.44 1.92-4.03 4.47-4.88a5.2 5.2 0 0 1 4.36.23c2.76 1.2 4.9 4.35 4.4 6.47-.14.58-.28 1.23-.32 1.46-.17.88-1.55 2.4-3.08 3.38-1.55 1-3.3 1.3-4.71.81zm4.33-4c.99-.82 1.05-1 .9-2.52-.2-2.18-1.45-3.47-3.64-3.77-1.45-.2-1.62-.15-2.54.86-1.27 1.39-1.54 2.74-.84 4.21.74 1.57 1.66 2.12 3.5 2.12 1.2 0 1.8-.2 2.62-.9zm-45.1-6.42a5.06 5.06 0 0 0-1.58-.31c-1.07-.03-1.17-.59-.32-1.73.75-.99 2.33-4.3 3.72-7.78.6-1.46 1.42-3.49 1.85-4.5.43-1 1.04-2.55 1.36-3.44.32-.88.75-1.67.95-1.75.21-.08.93.08 1.6.37 1.5.62 1.56 1.21.4 3.5a9.3 9.3 0 0 0-.82 2.02c0 .2-.22.84-.5 1.42-.97 2.1-3.23 7.73-3.5 8.7-.95 3.55-1.55 4.21-3.16 3.5zm-107.21-6.73c-.5-.67-2.11-7.6-2.11-9.08 0-.73-.15-1.87-.33-2.53-.6-2.13-1.66-7.4-1.53-7.53.07-.07-.16-.88-.52-1.81-.35-.93-.56-1.76-.47-1.85.09-.1.83-.24 1.64-.33 1.43-.16 1.49-.14 1.7.84.12.56.42 1.18.67 1.39.24.2.44.91.44 1.58 0 1.25 1.27 7.73 1.75 8.91.28.7.54 1.9.83 3.83.1.64.31 1.61.48 2.16 1.14 3.68 1.14 3.67-.11 4.14-1.71.63-2.13.68-2.44.28zm-41.07-4.9c-2.58-.79-3.86-2.3-4.12-4.84-.26-2.66.33-4.26 2.1-5.66 3.39-2.68 7.63-1.3 9.38 3.02.71 1.75.72 1.81.14 3.65-.68 2.17-1.88 3.26-4.15 3.78-1.71.4-2.16.4-3.35.05zm3.99-3.19c1.53-1.38 1.82-2.64 1.02-4.42-1-2.24-4.6-3.1-6.08-1.47a6.51 6.51 0 0 0-.93 2.12c-.54 2.01 0 3.4 1.66 4.28 1.81.96 2.84.84 4.33-.5zm112.4-4.28c-.1-.3-.4-.54-.63-.55-.23 0-1.06-.58-1.85-1.26-1.23-1.08-1.44-1.48-1.62-2.95-.3-2.5.08-3.9 1.48-5.45 2.14-2.39 3.81-2.8 7.17-1.79a5.8 5.8 0 0 1 4 4.96c.18 1.35.07 1.9-.66 3.4-.59 1.2-1.23 1.98-1.92 2.33-.57.29-1.28.74-1.58 1a5.7 5.7 0 0 1-2.36.67c-1.48.15-1.85.09-2.02-.36zm4.98-4.05c.8-.84 1.12-1.5 1.12-2.25-.01-1.88-.33-2.38-2.17-3.38-2.22-1.2-3.17-.98-4.59 1.04-1.16 1.64-1.05 2.7.48 4.55.89 1.08 1.18 1.22 2.52 1.22 1.31 0 1.67-.16 2.64-1.18zm-57.12-2.24c-2.16-2.12-2.62-3.58-1.95-6.17.45-1.72.65-2 2.4-3.2 1.64-1.13 2.16-1.32 3.65-1.32 1 0 2.21.27 2.9.62 1.2.62 2.95 2.4 2.98 3.03 0 .2.19.53.4.74.55.55.61 1.67.18 3.24-.54 1.97-1.78 3.82-2.56 3.82-.2 0-.72.24-1.16.52-.57.38-1.42.5-3 .43-2.13-.1-2.25-.15-3.84-1.71zm5.59-1.41c2.15-.86 2.9-2.88 1.93-5.2-1.57-3.73-7.2-2.18-7.17 1.99.01 1.82.6 2.73 2.08 3.28 1.44.52 1.69.52 3.16-.07zm126.13 418.12a3.33 3.33 0 0 1-1.1-1.66 3.54 3.54 0 0 0-.62-1.4c-.7-.72-1.88-2.8-1.88-3.33 0-.27-.24-.7-.54-.95-.5-.4-1.87-2.88-3.3-5.93-.3-.63-.9-1.62-1.35-2.2a4.14 4.14 0 0 1-.8-1.44c0-.21.68-.72 1.51-1.12 1.51-.73 1.51-.73 2.35.25.45.55 1.37 2.12 2.03 3.49a27.4 27.4 0 0 0 1.6 3c.22.27 1.12 1.84 2 3.49.87 1.64 1.88 3.4 2.23 3.9 1.42 2.03 1.33 3.33-.3 4.2-.9.47-.76.5-1.83-.3zm-255.35-4.13c-.45-.45-.82-1.16-.81-1.58 0-1.02 1.03-3.03 2.67-5.25a97.13 97.13 0 0 0 4.18-6.03c.2-.36.69-1 1.08-1.41 1.3-1.4.93-1.83-3.8-4.46-.41-.23-1.23-.87-1.81-1.42-.59-.55-1.2-1-1.37-1-.56 0-.3-.79.57-1.7.86-.9.86-.9 2.08-.2.67.4 2.03 1.32 3.02 2.06a178 178 0 0 0 4 2.86c2.45 1.7 2.78 2.48 1.6 3.75-1.42 1.53-7.66 11.54-8.09 12.96-.68 2.29-1.92 2.82-3.32 1.42zm283.9-13.42c-.3-.59-.66-1.07-.8-1.07s-.54-.48-.89-1.08c-.77-1.32-3.21-4.51-6.18-8.08a31.16 31.16 0 0 1-2.96-4.1c-.73-1.44-.73-1.44.04-2.57.43-.63.93-1.14 1.13-1.14.52 0 1.5 1.18 3.25 3.91.84 1.33 1.67 2.41 1.84 2.41.16 0 .5-.24.74-.53a37.5 37.5 0 0 1 2.87-2.52c1.33-1.09 2.42-2.09 2.42-2.21 0-.13-.74-1.05-1.65-2.04-.9-1-1.83-2.25-2.05-2.79-.38-.92-.34-1.03.73-1.92 1.32-1.1 1.91-1.2 2.21-.38.32.87 4.04 5.35 4.75 5.74.35.18.73.67.86 1.08.13.41.96 1.62 1.85 2.7a11.85 11.85 0 0 1 1.62 2.23c0 .16.45.53 1 .8.55.3 1.23.89 1.52 1.33.5.77.49.84-.58 1.81-1.39 1.27-2.46 1.3-3.48.11a3.7 3.7 0 0 1-.79-1.2c0-.16-.52-.88-1.16-1.58a5.52 5.52 0 0 1-1.17-1.65c0-.2-.24-.6-.53-.89-.6-.6-.46-.7-3.65 2-1.25 1.05-2.46 1.91-2.7 1.91-.8 0-.45 1.03.98 2.83 3.97 5.03 4.27 5.6 3.2 6.18-.42.22-1.01.71-1.32 1.09-.54.68-.55.67-1.1-.38zm-303.62-2c-1.1-.91-1.1-.91-.14-2.24.54-.72 1.3-1.6 1.69-1.95.39-.35.71-.81.71-1.03 0-.21.4-.75.88-1.2.48-.44 1.52-1.8 2.3-3.01.79-1.22 1.6-2.32 1.8-2.45.22-.13.53-.6.7-1.04.7-1.84-3.66-6.44-6.12-6.45-1.14 0-4.06 2.65-5.79 5.25-.64.96-1.48 2-1.87 2.33a10 10 0 0 0-1.68 2.4 21.4 21.4 0 0 1-1.2 2.11c-.3.33-2.02-.5-2.67-1.28-.63-.76.07-1.97 3.18-5.45a25.7 25.7 0 0 0 2.48-3.03c0-.54 4.07-4.39 5.08-4.81 1.37-.57 4.1-.3 5.28.52a9.7 9.7 0 0 0 1.66.92c1.37.54 3.63 2.73 4.3 4.16.65 1.4.8 2.14.7 3.4-.05.74-5.5 9.25-6.65 10.4-.38.38-1 1.3-1.37 2.04-.83 1.63-1.68 1.73-3.27.41zm325.55-20.6a36.17 36.17 0 0 0-4.16-2.05c-.82-.3-2.2-.96-3.06-1.46a8.06 8.06 0 0 0-1.92-.91c-.2 0-1.45-.53-2.77-1.17a13.74 13.74 0 0 0-2.97-1.16c-.31 0-.73-.3-.92-.64-.27-.52-.16-.85.52-1.67 1.05-1.25 1.93-1.3 3.85-.2 2.32 1.34 3.04 1.16 5.53-1.33 2.43-2.42 2.4-2.23.46-5.15-.88-1.33-.8-3.2.17-3.9.95-.7 1.26-.5 2.25 1.4.53 1 1.23 2.12 1.57 2.48.34.36.62.76.62.88s.7 1.64 1.58 3.38c2.05 4.11 2.47 4.88 2.73 5.08.42.31 2.34 4.73 2.34 5.38 0 .75-1.9 2.62-2.65 2.58-.28 0-1.7-.7-3.17-1.53zm0-5c-.23-1.24-1.36-3.75-1.7-3.75-.1 0-.69.4-1.32.87-1.52 1.16-1.54 2.3-.06 2.93 3.47 1.48 3.37 1.48 3.09-.04zm-350 5.1c-1.2-1.07-1.56-1.96-.94-2.34.17-.1.4-.83.52-1.6.22-1.5 1.37-5.63 1.87-6.74.48-1.05 1.3-3.93 1.3-4.58 0-1.13-1.13-.55-3.21 1.63a16.35 16.35 0 0 0-2.11 2.46c0 .15-.98 1.13-2.18 2.18-2.18 1.9-2.18 1.9-3.33.8-1.25-1.23-1.48-2.22-.57-2.56.32-.12.66-.3.75-.4.1-.11 1.22-1.09 2.5-2.17 1.28-1.1 3-2.67 3.83-3.5.82-.84 2.32-2.27 3.32-3.18 3.6-3.24 3.58-3.23 4.3-2.84 1.25.67 1.37 1.4.7 4.14a15.5 15.5 0 0 1-.93 2.97c-.17.21-.49 1.36-.7 2.55-.72 3.88-1.09 5.8-1.36 7.06-.14.68-.2 1.3-.11 1.38.08.08 1.37-1.14 2.87-2.73 7.52-7.95 7.1-7.6 8.04-6.71.93.87 1.05 1.5.42 2.16a395.5 395.5 0 0 1-7.94 8.05c-.62.57-1.94 1.96-2.94 3.07-1 1.12-2.04 2.03-2.33 2.02-.28 0-1.08-.51-1.76-1.12zm364.88-11.87c-.96-.37-1.44-1.58-.98-2.47.19-.37 1.14-1.54 2.12-2.6 1.02-1.1 1.78-2.24 1.78-2.66 0-.46-.64-1.33-1.74-2.33-1.75-1.6-1.75-1.6-3.53.42-1.87 2.12-2.59 2.4-3.5 1.4-.84-.93-.67-1.53 1-3.6 1.55-1.9 1.55-1.9.25-3.02-.71-.61-1.99-1.48-2.83-1.92-.85-.44-1.62-1.1-1.71-1.46-.22-.8 1.04-2.69 1.8-2.7.3 0 1.19.6 1.96 1.35a34 34 0 0 0 2.6 2.25c.67.49 1.4 1.16 1.65 1.48.24.32 1.01.88 1.72 1.24s1.49.93 1.73 1.26c.24.33.98.94 1.65 1.34 1.59.97 3.61 3.22 3.61 4.02 0 .35-.67 1.38-1.5 2.3-.82.91-1.5 1.81-1.5 2 0 .19-.4.7-.9 1.14a7.26 7.26 0 0 0-1.28 1.41c-.57 1.01-1.55 1.48-2.4 1.15zm12.9-23.17a64.38 64.38 0 0 0-6.32-1.98 19.85 19.85 0 0 1-3.2-.96 5.31 5.31 0 0 0-1.78-.49c-.64 0-3.7-.65-3.94-.84-.11-.09 1.18-2.45 1.68-3.07.46-.57 1.75-.52 3 .13 2.11 1.1 2.9 1.16 3.69.32 1.26-1.35 2.88-3.47 2.88-3.75 0-.15-.68-1.17-1.5-2.26-.82-1.1-1.5-2.26-1.5-2.6 0-.83.98-2.24 1.56-2.24.63 0 2.64 2.18 3.46 3.75.36.68.8 1.25.98 1.25.18 0 .53.5.79 1.11.25.62 1.05 1.7 1.77 2.41 2.67 2.67 5.1 6.61 5.1 8.3 0 .95-.2 1.28-1.1 1.82-.59.37-1.15.65-1.24.64-.09 0-2.04-.7-4.32-1.54zm1.67-3.51c0-.45-2.8-4.01-3.3-4.17-.45-.16-2.77 2.18-2.61 2.65.07.23.57.52 1.1.64.54.13 1.58.46 2.31.74 1.66.63 2.5.68 2.5.14zm-416.8-9.2a14.6 14.6 0 0 0-1.22-1.75c-.61-.77-.83-1.37-.72-1.94.09-.46 2.02-2.84 4.29-5.3 2.26-2.45 4.03-4.6 3.93-4.77-.11-.17-.73-.2-1.4-.08-1.97.39-8.12 1.52-9.29 1.72-1.28.21-2.47-.45-3.2-1.8l-.9-1.65c-.57-1.05-.2-1.65 1.45-2.4.8-.37 1.64-.88 1.86-1.15.22-.26.96-.58 1.64-.7a6.82 6.82 0 0 0 2.39-1.11c1.14-.87 3.45-2.16 6.96-3.88 2.23-1.1 3.4-1.02 3.84.25.46 1.3 0 1.85-2.15 2.65-1 .37-2.22.95-2.7 1.29a3.8 3.8 0 0 1-1.17.62c-.15 0-.73.25-1.28.54-.55.3-2.02 1.05-3.27 1.68-1.29.65-2.2 1.31-2.12 1.54.17.49.42.47 5.23-.43 5.54-1.03 9.73-1.4 10.05-.9.4.65.32.86-.87 2.05-.63.63-1.85 2.16-2.73 3.4a71.66 71.66 0 0 1-3.03 3.97c-1.37 1.63-1.82 2.8-1.08 2.8.2 0 1.46-.76 2.83-1.68a30.4 30.4 0 0 1 3.06-1.9c.32-.12 1.65-.86 2.96-1.65a15.3 15.3 0 0 1 2.73-1.43c.37 0 1.38 1.68 1.38 2.3 0 .57-1.43 1.74-3 2.45-.82.37-1.94 1-2.49 1.42-.55.42-1.82 1.14-2.83 1.62-1 .47-2.5 1.3-3.32 1.85-.83.54-2.14 1.3-2.92 1.7-.78.4-1.5.85-1.6 1-.3.5-.97.33-1.31-.33zm428.11-3.53c-.76-.64-1.66-1.16-1.98-1.16-.33 0-.78-.22-1-.48-.22-.27-1.17-.97-2.12-1.56l-3.22-2a25.52 25.52 0 0 1-1.89-1.27 9.62 9.62 0 0 0-1.83-.9c-2.35-.94-2.76-1.84-1.5-3.3.78-.9.78-.9 2.08-.1 1.34.83 2.3 1.37 4.64 2.65.73.4 1.45.93 1.6 1.18.15.25.46.45.69.45.23 0 1.01.45 1.73 1 1.99 1.5 2.94 1.24 1.36-.37a92 92 0 0 1-2.78-3.12 99.13 99.13 0 0 0-4.59-4.9c-2.6-2.56-2.6-2.56-2.04-3.4.67-1.03.99-1.05 3.6-.17 1.11.38 3.32.83 4.9 1.01 1.57.18 3.38.47 4.02.64 1.46.4 3 .42 3 .03 0-.16-.27-.37-.59-.48-.32-.1-.96-.4-1.41-.68-.46-.28-2.56-1.36-4.66-2.4l-4.76-2.38c-1.08-.56-1-1.4.3-2.73.78-.82.78-.82 1.77-.09.55.4 1.16.74 1.37.74.2 0 1 .36 1.76.8.76.44 2.36 1.2 3.55 1.7 1.19.48 2.31 1.05 2.5 1.27.18.21.88.58 1.57.82a22 22 0 0 1 3.14 1.58 13 13 0 0 0 2.17 1.15c.45 0 .3 2.17-.23 3.22a6.5 6.5 0 0 1-1.17 1.61c-.62.56-.86.58-2.42.21-.95-.23-2.48-.55-3.4-.72-.91-.16-2.19-.45-2.83-.63-4.01-1.12-5.65-1.31-5.65-.65 0 .2.76 1.06 1.68 1.9.93.84 2.2 2.25 2.84 3.13.63.88 1.98 2.5 3 3.6 1.65 1.8 1.82 2.13 1.63 3.08-.25 1.2-1.87 2.89-2.8 2.89-.35 0-1.26-.53-2.03-1.17zm-444.23-28a4.8 4.8 0 0 1-1.2-1.48c-.48-.94-.46-1.07.41-2.62.5-.9 1.24-1.81 1.62-2.02.38-.2 3.36-3.05 6.6-6.33 3.26-3.29 6.18-5.97 6.5-5.97.64 0 1.36 1.28 1.36 2.4 0 .4-.8 1.53-1.83 2.62-1 1.06-1.83 2.15-1.83 2.43 0 .44.5 1.91 1.5 4.36.14.37.3.87.36 1.12.16.8.44.83 2.88.3 2.68-.58 2.9-.5 4 1.36.91 1.55.19 2.05-3.02 2.05-1.4 0-3.6.23-4.89.5a68.1 68.1 0 0 1-5.99.86c-2.01.2-4.14.47-4.72.62-.75.2-1.26.13-1.75-.2zm9.88-4.15c.92-.34.92-.48.09-2.21a7.7 7.7 0 0 1-.67-1.73c0-.19-.26-.34-.58-.34-.88.01-4.74 3.85-4.74 4.72 0 .3 4.87-.06 5.9-.44zm455.82-14.1c-.74-.25-2.6-.99-4.16-1.64a20.24 20.24 0 0 0-3.37-1.19c-.3 0-1.35-.37-2.33-.81-.99-.44-2.33-.89-3-.99-2.93-.44-3.58-1.15-2.64-2.91.73-1.38 1.51-1.78 4.68-2.39 1.37-.27 3.47-.82 4.66-1.23 5.87-2.02 6.03-2.09 5.6-2.37a3 3 0 0 0-1.3-.28c-.47 0-1.9-.37-3.16-.81a50.1 50.1 0 0 0-4.8-1.35c-1.36-.3-2.6-.73-2.73-.94-.43-.67-.3-2.46.22-2.88.53-.44 2.36-.2 3.11.41.24.2 1.1.48 1.91.63 4.78.9 12.07 2.55 13.22 3 1.06.41 1.41 1.42 1.09 3.15-.33 1.74-1.23 2.3-4.49 2.77-1.57.23-4 .77-5.4 1.21-1.42.44-2.83.8-3.15.8-.77 0-2.78.74-2.78 1.03 0 .28.83.64 2.33.98l2.5.62c.73.19 1.9.35 2.61.35.75 0 1.96.38 2.91.9 1.5.81 1.63.98 1.63 2.14 0 .92-.2 1.4-.74 1.78-.86.6-.72.6-2.42.02zM10.8 322.72a4.56 4.56 0 0 1-.51-1.58c0-.33-.3-1.05-.66-1.6-.4-.6-.67-1.56-.67-2.39 0-.77-.15-1.49-.33-1.6-.19-.11-.34-.92-.34-1.8 0-1.82.68-2.7 2.1-2.7 1.14 0 1.86 1.1 2.24 3.4.49 3.04 1.19 5.09 1.77 5.2.54.1 4.79-1.43 5.3-1.92.15-.14-.06-1.39-.47-2.78-.73-2.49-.73-2.55-.12-3.23 1.03-1.14 2.2-.76 3.06 1 .4.83.74 1.9.75 2.39.03 1.9.22 1.97 2.46 1.02a24.41 24.41 0 0 0 2.7-1.3c.95-.64 1.63-.55 2.45.33 1.24 1.31.95 1.83-1.69 3.03-1.32.61-3.23 1.3-4.24 1.54-1 .24-2.39.7-3.07 1.04-.67.33-1.48.6-1.78.6-.3 0-1.72.53-3.14 1.17-1.6.72-3.1 1.16-3.94 1.16-1.17 0-1.43-.13-1.87-.98zm12.3-21.06c-.91-.17-2.63-.37-3.82-.45-2.57-.15-6.3-.67-8.16-1.12-.73-.18-2.05-.33-2.93-.34-3.5-.01-4.76-3.5-2.1-5.72.4-.32.89-.6 1.11-.6.23 0 .64-.36.92-.78a6.43 6.43 0 0 1 2.09-1.56c2.7-1.34 8.73-5 8.73-5.3 0-.36 2.1-1.62 3.16-1.88.7-.18.83-.05 1.15 1.13.54 1.99-.02 2.9-2.46 4.07-3.07 1.47-2.94 1.26-2.18 3.47.36 1.07.67 2.43.67 3.03 0 1.64.61 2.03 3.31 2.1 2.91.08 4 .45 4 1.38 0 .39.15.97.33 1.3.63 1.18-1.14 1.77-3.82 1.27zm-6.5-5.18c0-1.5-.86-3.55-1.53-3.65-.6-.1-5.17 2.95-5.39 3.58-.05.17.25.4.67.5 1.17.28 5.73.73 6.01.59.14-.07.25-.53.25-1.02zm.95-5.47c.08-.4-.1-.58-.58-.58s-.69.21-.69.69c0 .85 1.1.75 1.27-.11zm474.72 6.42c-.16-.15-2.69-.75-5.62-1.34-8.89-1.78-10.05-2.64-10.8-7.9-.24-1.73-.2-2.83.19-4.75.44-2.18.69-2.68 1.94-3.94 1.43-1.45 1.43-1.45 6.01-1.4 2.52.02 4.83.17 5.12.32.3.16 1.95.53 3.68.82 3.66.63 4.68 1.17 4.68 2.47 0 2-1.61 2.9-3.73 2.1a23.44 23.44 0 0 0-6.66-1.52c-1.41-.12-3.1-.43-3.75-.7-1.05-.44-1.29-.44-2.17.02-1.46.76-2 1.83-2.22 4.4-.2 2.3-.2 2.3 1.1 3.66.93.98 1.67 1.42 2.62 1.58.73.12 1.63.35 2 .51.36.16 1.26.36 2 .44.73.09 1.92.33 2.66.54.73.21 2.14.5 3.14.62 1.57.2 1.9.37 2.42 1.27.5.87.54 1.2.22 1.92-.22.47-.49.88-.6.9-1.08.21-1.99.2-2.23-.02zM2.64 278.68c-.65-.32-.86-.71-.93-1.77-.07-.86.07-1.49.37-1.74.39-.32 5.41-1 7.63-1.04.75-.01.76-1.03.02-3.09a4.86 4.86 0 0 1-.2-3.32c.2-.97.25-1.88.1-2.03-.14-.15-1.59-.1-3.21.1-5.06.64-5.83.48-6.28-1.34-.14-.58 0-1.1.41-1.62.59-.72.89-.77 5.43-.89 2.65-.06 5.93-.27 7.3-.44 6.1-.8 6.97-.68 7.68 1.04.74 1.78.25 2.07-4.02 2.33-2.07.13-3.87.36-4 .5-.14.15-.13 1.16.02 2.26a108.72 108.72 0 0 1 .64 6.08c.04.2 3.44.04 4.97-.25 2.42-.46 3.44-.02 3.3 1.41-.09.94-.25 1.11-1.26 1.32a220 220 0 0 1-11.82 1.61c-1.46.15-3.22.5-3.9.8-1.46.6-1.23.6-2.25.08zm477-11.78c-.5-.5-.54-1.07-.36-4.75.12-2.3.22-5.3.22-6.68 0-3.97-.7-3.71 10.29-3.8 9.26-.07 9.4-.06 9.66.63.72 1.91.73 2.8.03 3.5-.62.62-.97.68-3.27.52-9.78-.66-13.16-.84-13.3-.69-.1.1-.16 2.56-.13 5.49.05 5.14.03 5.32-.7 5.83-.95.67-1.73.65-2.44-.05zm16.83-28.6c-1-.24-2.65-.7-3.66-1-1-.31-2.5-.67-3.33-.81-.82-.14-2.77-.55-4.32-.93a74.3 74.3 0 0 0-4.1-.87c-.97-.16-1.34-.41-1.6-1.1-.5-1.3 0-1.86 2.7-3l3.64-1.54a16.55 16.55 0 0 1 3.58-1.18c.73 0 1.4-.8 1.01-1.2-.26-.27-4.04-.75-7.73-.98a26.63 26.63 0 0 1-3.57-.37c-.47-.28-.26-2.36.27-2.8.56-.46 2.91-1.75 5.63-3.08.91-.45 2.03-1.21 2.47-1.69.44-.48.96-.87 1.15-.87.19 0 2.03-.84 4.1-1.86 2.06-1.03 3.95-1.8 4.19-1.7.24.09.63.75.87 1.46.38 1.15.35 1.43-.2 2.42-.5.9-1 1.23-2.6 1.73-2.22.7-8.96 3.91-8.71 4.16.19.19 5.79 1.04 6.72 1.01 4.41-.1 5.82.47 5.82 2.4 0 .58-.19 1.1-.42 1.17-.22.07-1.68.6-3.24 1.18a74.79 74.79 0 0 1-3.83 1.35c-1.48.42-5.09 1.81-5.33 2.06-.39.38 1.1.94 2.9 1.08.97.07 2.74.29 3.93.48 1.19.18 2.99.43 4 .54 1 .1 2.02.38 2.25.62.64.63.9 2.77.4 3.37-.47.57-.53.57-2.99-.04zm-485-1.13c-1.25-.38-5.13-.47-7.52-.16-1.75.22-1.9.18-2.93-.78-1.4-1.31-1.35-2.63.12-3.36 1.24-.62 7.65-.63 11.93-.02 1.6.23 3.37.34 3.94.26.57-.08 1.65.03 2.4.25 1.28.37 1.37.48 1.46 1.76.14 1.75-.54 2.14-3.62 2.07l-2.88-.06c-.32 0-.88.07-1.25.17s-1.1.04-1.65-.13zm-9.65-16.7a3.52 3.52 0 0 1-.51-1.72c0-1.28 2.32-3.54 4.22-4.1 1.71-.51 4.6-2.18 4.6-2.66 0-.2-1.7-2.1-3.76-4.22-3.75-3.86-3.75-3.86-2.9-5.53.46-.91 1-1.66 1.2-1.66.7 0 2.58 1.73 3.9 3.6.74 1.07 2.39 2.92 3.67 4.12 2.52 2.38 2.01 2.2 8.66 3.17 2.24.32 2.64.85 2.08 2.73-.4 1.37-.4 1.37-2.64 1.15a17.7 17.7 0 0 1-3-.51c-.42-.16-1.6-.28-2.61-.28-1.52 0-2.06.16-3.06.93-.67.52-1.81 1.3-2.54 1.74-.74.44-1.48.91-1.67 1.06-2.19 1.7-4.08 2.92-4.55 2.92-.31 0-.8-.33-1.09-.74zm475.8-18.2c-2.07-.98-3.78-2.82-3.78-4.08 0-.31-.13-.65-.3-.75-.17-.1-.48-1.24-.7-2.51-.65-3.9.5-6.21 4.03-8.01.7-.36 1.64-.65 2.1-.65.46 0 1.17-.13 1.6-.29.42-.16 1.88-.64 3.26-1.07a12.8 12.8 0 0 0 3.18-1.37c.38-.33 1.07-.6 1.54-.6s1.29-.22 1.8-.5a4.5 4.5 0 0 1 1.34-.5c.54 0 .82.91.58 1.89-.15.57.01 1.13.51 1.8.4.55.65 1.11.56 1.26-.1.15-1.44.38-2.99.5-1.54.11-3.23.42-3.75.67-.88.43-2.66 1-7.52 2.36-2.33.66-2.94 1.46-3 3.92-.05 2.1.8 4 2.15 4.82.73.45 1.11.48 2.16.18 3.14-.9 6.71-1.77 8.02-1.97.78-.11 1.5-.34 1.6-.5.1-.15 1.04-.28 2.1-.28 2.17 0 3.17.68 2.97 2.04-.14 1.03-3.83 2.45-7.56 2.92a35 35 0 0 0-4.92 1.02c-1.2.37-2.34.67-2.55.67-.21 0-1.3-.44-2.43-.97zM24.1 192.3c-1.52-.55-4.24-1.2-8.65-2.1-.92-.18-2.27-.54-3-.8a8.6 8.6 0 0 0-2.19-.46c-1.51 0-2.02-.67-1.9-2.5.1-1.66.1-1.66 1.45-1.76.79-.05 2.4.24 3.83.7 1.36.45 3.3 1 4.3 1.22 1.01.22 2.58.68 3.5 1.02 2.92 1.06 3.09 1.08 3.48.35.2-.37.41-1.27.49-2 .07-.74.44-2 .82-2.79.39-.79.7-1.67.7-1.95 0-.8 1.2-1.7 1.94-1.46.36.12.84.67 1.07 1.23.36.87.33 1.4-.18 3.4-.33 1.3-.93 3.13-1.33 4.04-.4.92-.84 2.11-.97 2.66-.3 1.16-.79 1.84-1.32 1.82-.2-.01-1.12-.29-2.04-.62zm444.47-14.6c-.64-.9-.84-1.5-.76-2.3.02-.22.8-1.14 1.7-2.04.92-.9 1.67-1.88 1.67-2.17 0-.98-1.42-5.03-1.96-5.6-.46-.48-.8-.5-2.45-.21a7.84 7.84 0 0 1-2.37.16c-.62-.24-1.02-2.48-.54-3.06.48-.58 3.27-.89 11.98-1.32 1.37-.07 3.92-.23 5.66-.34 3.16-.22 3.16-.22 3.58.77.27.61.35 1.5.21 2.35-.18 1.11-.45 1.51-1.42 2.1-1.4.84-4.99 4.04-10.16 9.06-2 1.94-3.82 3.53-4.06 3.53-.23 0-.72-.42-1.08-.93zm7.13-9.1c.35-.4 1.42-1.3 2.38-2 .97-.72 1.75-1.45 1.75-1.63 0-.41-6.32-.42-6.97 0-.42.26-.34.61.47 2.32.53 1.11 1.14 2.02 1.35 2.02.22 0 .68-.32 1.02-.71zm17.08 6.22c-.08-.08-1.25-.23-2.6-.34-3.94-.31-5.42-1.73-3.59-3.45.64-.6 1.17-.72 3.06-.72 1.25 0 2.8-.19 3.42-.42 1.07-.38 1.18-.35 1.95.54 1.16 1.35.97 2.78-.51 3.78-1.14.76-1.47.88-1.73.61zM28.76 172c-.55-.13-1.3-.4-1.66-.6a8.95 8.95 0 0 0-2-.58 5.57 5.57 0 0 1-1.66-.5c-.19-.15-1.24-.53-2.33-.84-6.28-1.8-6.42-1.86-6.84-2.86-.84-2.03.77-3.9 2.44-2.83a41.8 41.8 0 0 0 5.9 2.37c.45.13 1.9.74 3.22 1.34 3.49 1.6 4.42 1.72 5.66.68 1.3-1.1 2.5-4.26 2.37-6.21-.1-1.27-.27-1.57-1.44-2.35-.73-.5-1.93-1.07-2.66-1.28-3.17-.9-9.04-3.25-9.9-3.96-1.22-1-.37-3.7 1.16-3.7.29 0 1.41.5 2.5 1.11a32.7 32.7 0 0 0 3.6 1.74c.9.34 2.45 1.04 3.45 1.54 1 .51 1.98.93 2.18.93.7 0 3.18 2.38 3.84 3.68 1.64 3.21.02 8.49-3.62 11.75-.78.7-2.69.96-4.21.57zm437.44-21.05c-.37-.4-.68-1.01-.68-1.35 0-1.05-1.3-3.25-1.92-3.25-.87.02-3.1 1.12-4.31 2.13-1.33 1.12-2 1.02-2.99-.44-1-1.5-.96-1.95.26-2.62a70.2 70.2 0 0 0 2.74-1.65 7.82 7.82 0 0 1 2.22-1.09c.28 0 .94-.22 1.46-.5.53-.27 1.2-.5 1.5-.5.3 0 1.55-.63 2.78-1.4 4.28-2.72 5.53-3.42 6.1-3.42.62 0 1.12.78 2.48 3.83.45 1 1.13 2.28 1.53 2.83 1.91 2.68 2.16 6.2.45 6.43a2.5 2.5 0 0 0-1.13.42c-.18.17-.43.3-.57.3-.37 0-1.95-2.79-1.95-3.45 0-.31-.26-.96-.58-1.44a9.29 9.29 0 0 1-.93-2.07c-.4-1.35-.55-1.36-3.14-.4-1.67.6-1.83.76-1.8 1.63.03.53.42 1.55.88 2.26 1.18 1.88 1.3 2.54.64 3.33-.91 1.1-2.23 1.28-3.04.42zm-425.44-2.59c-.75-.83-9.31-5.05-13.66-6.73-2.33-.9-2.58-1.49-1.52-3.57.83-1.63 1.33-1.79 5.84-1.88 6.03-.13 10.48-.53 10.48-.95 0-.43-5.43-3.35-8.41-4.52-2.71-1.07-3.13-1.95-1.7-3.64 1-1.2 1.54-1.27 2.7-.36.47.37 1.1.67 1.4.67.3 0 1.07.44 1.73.98.65.54 1.92 1.26 2.82 1.6.9.34 2.67 1.25 3.94 2.02 1.27.76 2.44 1.39 2.6 1.39.16 0 .96.46 1.78 1.02 1.41.97 1.47 1.08 1.26 2.25-.38 2.14-.7 2.48-2.07 2.23a17.6 17.6 0 0 0-6.72-.17c-1.37.21-3.86.41-5.55.44-4.05.07-4.6.56-1.9 1.71 1.08.47 2.2.97 2.47 1.12a88.8 88.8 0 0 0 5.4 2.7c2.6 1.2 3.15 1.92 2.51 3.26-.57 1.2-2.48 1.45-3.4.43zm401.07-25.55c-1.17-1.34-1.27-1.91-.52-3.11 2.65-4.27 5.37-11.6 4.6-12.39-.14-.15-.7.08-1.22.51a54.2 54.2 0 0 1-2.92 2.1c-1.08.73-2.73 2.1-3.68 3.03-1.36 1.37-1.83 1.65-2.28 1.4-.31-.17-.57-.52-.57-.78 0-.25-.31-.68-.7-.95-.92-.65-.58-1.72.76-2.41.56-.29 2.14-1.45 3.5-2.58a35.53 35.53 0 0 1 3.83-2.78c1.2-.68 1.89-1.21 4.8-3.76 2.65-2.31 3.8-2.57 4.6-1.02.76 1.45.63 2.71-.48 4.96-.55 1.1-1 2.21-1 2.46s-.3 1.03-.67 1.75a6.58 6.58 0 0 0-.66 1.71c0 .23-.52 1.39-1.14 2.6-.63 1.2-1.01 2.26-.85 2.35.16.1 1.08-.42 2.05-1.16a9.47 9.47 0 0 1 2.1-1.34c.19 0 .53-.3.75-.66.23-.37.63-.67.88-.67s1.3-.82 2.32-1.83c1.02-1 1.93-1.83 2.02-1.83.37 0 2.18 2.2 2.18 2.66 0 .28-.15 1.05-.34 1.71-.31 1.14-.6 1.34-4.57 3.31a72.05 72.05 0 0 0-10.44 6.29c-1.33 1-1.78 1.09-2.35.43zM65.96 110.17a203.17 203.17 0 0 0-11.15-8.85c-1.4-.73-3.26-2.66-3.25-3.37 0-1.07.98-2.56 3.44-5.25.58-.62 1.66-1.83 2.4-2.68 1.81-2.06 2.84-2.53 3.96-1.8 1.64 1.09 1.1 2.34-2.73 6.22-1.33 1.35-2.42 2.62-2.42 2.83 0 .47 3.75 3.14 4.4 3.14.27 0 .97-.75 1.56-1.66 1.38-2.13 2.13-2.56 3.22-1.85 1.2.79 1.05 2.1-.4 3.51-1.96 1.95-2.04 2.3-.75 3.39.62.52 1.9 1.47 2.86 2.11.95.65 1.82 1.32 1.93 1.5.3.49-1.25 3.13-1.9 3.25-.3.06-.83-.16-1.17-.5zm361.8-7.44c-1.4-.43-4.57-3-5.15-4.17-.27-.54-.66-1.2-.87-1.47-.52-.68-1.12-4-.86-4.7.12-.3 2.4-2.64 5.06-5.17 2.66-2.54 5.4-5.25 6.1-6.02.82-.9 1.57-1.42 2.06-1.42 1.02 0 3.17 2.18 2.9 2.94-.26.69-2.8 3.39-3.2 3.39-.16 0-.7.33-1.2.74-.5.42-1.48 1.2-2.17 1.75-.7.55-2.08 1.75-3.09 2.66-1 .92-2.03 1.79-2.29 1.93-.26.15-.46.8-.46 1.5 0 2.33 3.5 5.41 5.12 4.5 1.59-.9 10.4-9.2 10.68-10.06.23-.74 1.44-1.43 2.1-1.2.32.1.9.64 1.29 1.21.92 1.32.56 2.52-1.16 3.94-.68.55-1.82 1.59-2.55 2.3-.74.72-2.46 2.2-3.83 3.28-5.18 4.09-6.45 4.7-8.49 4.07zm-350.88-6.9c-.2-.5-.5-1.13-.69-1.4a37.2 37.2 0 0 1-1.34-2.67c-.56-1.19-1.58-3.18-2.26-4.44-4.32-7.95-4.66-9.02-3.37-10.65.78-1 2.09-1.16 3.18-.4.38.27 1.64.85 2.81 1.29a71.2 71.2 0 0 1 3.63 1.49 70 70 0 0 0 8.24 3.07c1.33.4 2.76 1 3.16 1.33.75.6.75.6.07 1.52-1.05 1.4-1.65 1.68-2.72 1.24-4.68-1.92-4.07-1.98-6.87.71-1.4 1.35-2.54 2.66-2.54 2.9 0 .26.52 1.28 1.16 2.27.64 1 1.16 1.97 1.16 2.16-.02.63-1.97 2.5-2.62 2.5-.39 0-.78-.36-1-.91zm1.47-10.43c.82-.76 1.49-1.63 1.49-1.94 0-.52-1.87-1.68-2.7-1.68-.2 0-1.11-.38-2.02-.83-1.8-.91-2.6-1.05-2.6-.45 0 .85 3.52 6.24 4.08 6.26.14 0 .93-.6 1.75-1.36zm331.72-.88c-2.26-2.33-4.1-4.46-4.1-4.74 0-.27.99-1.55 2.19-2.83a62.6 62.6 0 0 0 3.07-3.48c.48-.64 1.68-1.99 2.65-3a87.02 87.02 0 0 0 3.5-3.91c1.05-1.27 1.98-2.08 2.39-2.08.82 0 2.5 2.02 2.5 3.02 0 .46-.6 1.28-1.59 2.17-1.8 1.61-1.55 1.37-3.84 3.8a66.27 66.27 0 0 1-3.98 3.78c-1.23 1.07-2.24 2.2-2.24 2.52 0 .31.54.96 1.22 1.44 2.22 1.58 5.1 4.61 5.1 5.38 0 .94-1.17 2.18-2.06 2.18-.46 0-2.11-1.46-4.8-4.25zM96.06 76.8c-1.43-.28-2.05-.77-5.65-4.5a755.2 755.2 0 0 0-4.7-4.83 29.6 29.6 0 0 1-2.36-2.58c-.12-.23.1-.87.48-1.42.9-1.25 2.44-1.38 3.02-.24.22.4.93 1.28 1.6 1.93.66.64 2.33 2.54 3.7 4.21 1.38 1.67 2.87 3.18 3.33 3.35.48.18 1.65.2 2.75.06 1.5-.2 2.2-.52 3.32-1.47 1.78-1.53 2.22-2.33 2.24-4.06 0-1.3-.22-1.63-3.57-5.35a53.24 53.24 0 0 0-4.66-4.73c-1.28-.91-1.49-2.54-.43-3.49 1.05-.96 2.36-.42 4.04 1.67l2.73 3.4c.7.86 1.85 2.24 2.56 3.06 2.58 2.98 2.66 3.14 2.72 5.39.04 1.17-.1 2.4-.29 2.75-.44.78-4.8 5.17-5.14 5.17-.14 0-1.01.45-1.94 1-1.8 1.06-1.8 1.06-3.75.68zm-21.6-3.91a4.55 4.55 0 0 1-1.26-2.82c0-.91 1.05-2.27 1.74-2.27.75 0 1.29 1.7 1.18 3.7-.12 1.96-.72 2.47-1.67 1.39zm318.74-2.52c-.67-.39-1.22-.94-1.22-1.24 0-.3.52-1.15 1.16-1.9a7.53 7.53 0 0 0 1.17-1.6c0-.13.53-.83 1.17-1.54.93-1.03 1.17-1.55 1.13-2.54-.14-4.48.1-12.57.4-13.13.3-.56.57-.62 1.73-.44 2.62.42 3.64 2.37 2.75 5.27-.3.96-.6 2.56-.68 3.57a23 23 0 0 1-.37 2.76c-.21.9-.18.92.73.7a38.6 38.6 0 0 0 3.89-1.51c3.6-1.58 5.68-1.72 7.12-.47.76.66.87.92.57 1.41-.32.53-.87.87-3.54 2.16-.32.15-1.03.28-1.59.28-.55 0-1.56.3-2.24.66-.69.37-1.48.67-1.76.67-.3 0-.67.13-.84.29-.18.16-1.07.53-1.98.83-.98.32-1.87.86-2.16 1.33-1.07 1.68-3.52 4.85-3.86 4.99-.2.08-.9-.17-1.58-.55zM376.62 58.2c-1.07-.95-1.07-.95-.39-2.08 2.6-4.3 3.66-5.95 4.57-7.1.56-.72 2.08-2.9 3.37-4.82 1.92-2.89 2.5-3.54 3.25-3.62 1.69-.2 3 2.71 1.81 4-.85.92-2.48 3.12-2.9 3.92-.24.46-.53.9-.64 1-.11.1-.64.84-1.18 1.66-.54.83-1.24 1.8-1.56 2.17a9.5 9.5 0 0 0-1.03 1.54c-.25.48-.97 1.64-1.6 2.57-1.36 2-2.14 2.16-3.7.76zm-255.56-1.05c-.98-.9-2.1-1.92-2.47-2.29a32.52 32.52 0 0 0-3-2.24 31.34 31.34 0 0 1-3.13-2.37 8.82 8.82 0 0 0-1.75-1.29c-.5-.26-.92-.61-.92-.78 0-.16-.34-.4-.75-.53-1.13-.34-1.91-1.16-1.91-2 0-.9.9-2 1.89-2.3.56-.16 1.16.18 2.66 1.5 2.12 1.88 6.55 5.88 7.32 6.6.94.9 1.1-.1.3-1.84-.44-.93-.87-2.2-.96-2.82-.09-.61-.55-1.99-1.03-3.05-1.25-2.77-1.4-4.03-.55-4.87 1.15-1.15 1.87-.84 4.6 1.94 2.83 2.89 6.57 6.08 6.82 5.83.09-.09-.55-2.07-1.42-4.4-2.32-6.22-2.4-6.48-2.45-7.36-.03-.58.28-1.04 1.1-1.6 1.13-.76 1.15-.76 1.79-.13.35.35.75 1.22.9 1.92.58 2.95 1.63 6.75 3.65 13.27.34 1.1.71 2.55.82 3.23.19 1.12.13 1.26-.62 1.45-.81.2-1.17-.05-4.18-2.85-.3-.28-1.13-.95-1.85-1.5a55.5 55.5 0 0 1-3.07-2.58c-1.58-1.43-2.75-2-2.74-1.33 0 .14.37.98.83 1.88.46.9.83 1.9.83 2.23 0 .33.13.67.3.77.16.1.4.73.52 1.4a8.6 8.6 0 0 0 1.02 2.47c1.48 2.34 1.5 4.23.03 4.9-.72.32-.98.2-2.58-1.26zm24.19-13.05c-.29-.4-.52-.91-.52-1.12 0-.22-.7-1.72-1.56-3.34-.85-1.62-2.07-4-2.7-5.28a19.37 19.37 0 0 0-1.35-2.5 20.65 20.65 0 0 1-2.28-3.7c-.48-1.1.14-1.79 1.92-2.12 1.42-.26 1.5-.19 3.15 3.16a26.99 26.99 0 0 0 1.66 3c.23.27.62 1.1.87 1.83s.8 1.83 1.2 2.46c.42.62.75 1.4.75 1.72 0 .52 1.23 2.97 1.5 2.97.04 0 1.54-.82 3.31-1.83 1.78-1 3.31-1.83 3.4-1.83.1 0 .56-.3 1.02-.67 1.5-1.17 3.09-.6 3.09 1.12 0 .3-1.82 1.53-4.41 2.98-7.69 4.32-8.12 4.47-9.05 3.15zm201.85-1.94c-.6-.37-1.04-.91-1.04-1.3 0-.86 1.47-4.18 2.54-5.72 1.11-1.62.72-2.4-1.48-2.93-.88-.21-2.27-.82-3.08-1.36-1.48-.98-1.48-.98-2.06-.23a4.95 4.95 0 0 0-.78 1.58c-.3 1.28-2.43 5.65-2.75 5.65-.44 0-2.34-1-2.56-1.35-.1-.18.27-1.24.83-2.37a11.93 11.93 0 0 0 1.02-2.49c0-.24.51-1.46 1.14-2.69 1.79-3.53 2.5-5.3 3.05-7.51.78-3.14 2.82-4.52 4.29-2.9.82.92.47 3.48-.64 4.66a8.53 8.53 0 0 0-1.37 2.27c-.54 1.37-.54 1.45.06 1.89.34.25 1.21.63 1.94.85.73.22 2.05.78 2.94 1.24.92.48 1.73.71 1.88.55.32-.34 1.88-4.05 2.45-5.8.44-1.36.76-1.64 1.92-1.65 1.13 0 2.3 1.28 2.3 2.51 0 .54-.68 2.25-1.5 3.8-1.9 3.59-3.15 6.26-3.15 6.67 0 .18-.13.33-.28.33-.16 0-.49.63-.74 1.41-.24.78-.67 1.76-.93 2.19-.27.42-.73 1.23-1.02 1.8-.72 1.4-1.68 1.69-2.98.9zm-178.74-7.2c-1.15-.2-2.2-1.42-3-3.42-.36-.93-.88-2.04-1.16-2.45a15.6 15.6 0 0 1-1.12-2.57l-1.04-2.98c-.22-.64-.82-2.06-1.33-3.16a31.42 31.42 0 0 1-1.67-3.98c0-.07.77-.38 1.72-.7 1.64-.54 1.74-.54 2.15.03.24.32.67 1.36.95 2.29l1.22 4.03a115.95 115.95 0 0 0 1.6 4.82c1.26 3.58 1.64 4.37 2.42 4.98 1.02.8 2.21.85 4.25.17 2.25-.76 2.96-1.2 3.2-1.96.54-1.64-.23-6-1.47-8.34a7.1 7.1 0 0 1-.62-1.52c-.05-.29-.54-1.64-1.1-3-1.32-3.25-1.33-4.46-.03-5.13.54-.28 1.14-.5 1.33-.5.44 0 2.02 3.1 2.02 3.96 0 .36.38 1.68.85 2.92.48 1.25 1 2.9 1.15 3.66.17.76.53 1.94.81 2.62a9 9 0 0 1 .51 2.88c0 3.93-3.66 7.08-8.53 7.36-1.26.07-2.66.06-3.11-.02zm157.73-2.14a6.4 6.4 0 0 1-1.36-1.01 12.4 12.4 0 0 1-.04-2.94c.15-2.53.12-2.65-.64-2.97-1.72-.7-5.58-1.76-5.98-1.62-.23.07-.95 1.01-1.6 2.08a10.19 10.19 0 0 1-1.75 2.3c-.8.49-3.07-.13-3.2-.87-.07-.33 1.2-2.37 2.98-4.77 5.59-7.54 6.02-8.16 6.9-9.9 1.02-2.02 2.13-2.7 3.92-2.36 1.97.37 2.62 1.36 2.78 4.2.3 5.44-.06 18.3-.51 18.45-.18.06-.86-.2-1.5-.6zm-1.33-13.77c0-3.15-.09-3.83-.5-3.83-.26 0-.8.64-1.2 1.41-.4.78-1.17 1.96-1.7 2.64-.55.68-.94 1.4-.87 1.63.12.33 3.26 1.86 4.02 1.95.14.02.25-1.7.25-3.8zm39.67 8.09c-.22-.22-.4-.86-.4-1.42.02-.83.29-1.18 1.47-1.93.8-.5 1.6-.91 1.8-.91.2 0 .52-.3.72-.66.2-.37.73-.76 1.19-.87.65-.17 1.04.01 1.82.82 1.86 1.95 1.03 3.55-2.49 4.76-1.98.69-3.55.77-4.11.2zm-172.12-.79a5.34 5.34 0 0 1-.33-1.55c0-.38-.52-2.31-1.16-4.3a34 34 0 0 1-1.17-4.16c0-.53-.16-1.17-1.5-5.85-.3-1.04-.46-2.04-.35-2.22.11-.17.73-.5 1.37-.7 1.44-.48 1.62-.38 5.48 3.23a872.9 872.9 0 0 0 4.59 4.26c.97.9 2.01 2.04 2.32 2.56.69 1.17 1.93 1.31 1.6.18-.13-.4-.36-1.57-.5-2.58-.16-1-.6-2.6-.97-3.53-.38-.94-.6-1.8-.51-1.89.1-.1.02-.46-.17-.82-.55-1.04-.71-2.5-.32-2.97.29-.35 3.27-.67 3.28-.35 0 .04.46 2.48 1.03 5.4 1.88 9.77 2.4 13.19 2.04 13.5-.14.13-.74.32-1.35.43-1 .2-1.14.12-1.55-.88-.42-.99-6.72-6.98-10.9-10.35-1.59-1.28-1.59-1.28-1.59-.12 0 .64.3 1.85.67 2.69.37.83.81 2.16.98 2.95.64 3.05 1.35 5.62 1.73 6.21.63 1 .13 1.71-1.21 1.71-.97 0-1.25-.15-1.51-.85zm101.34-2.14c-.17-.27.55-3.98 1.48-7.65a32 32 0 0 0 .5-2.67c.13-.82.43-2.17.68-3 .25-.82.56-2.5.68-3.73.3-2.89.65-3.2 2.91-2.5.95.3 2.33.64 3.06.75a24 24 0 0 1 2.83.69c.83.26 2.15.63 2.94.82 1.44.36 1.44.36 1.21 1.75a4.97 4.97 0 0 1-.5 1.68c-.25.28-3.05-.22-4.48-.8-3.08-1.24-4.45-1.6-4.74-1.22-.5.65-1.23 5.22-.89 5.52.17.14.98.45 1.8.67 3.01.82 3.33 1.03 3.33 2.2 0 1.77-.56 1.94-3.33 1a52.2 52.2 0 0 0-2.56-.83c-.22 0-.87 1.83-.82 2.33.03.27-.14 1.55-.38 2.83-.43 2.33-.43 2.33-1.98 2.4-.85.04-1.64-.07-1.74-.24zm-12.47-1.98a5.58 5.58 0 0 1-.35-2.05c0-.78-.17-1.9-.38-2.49-.34-.93-.6-1.1-1.92-1.32-.84-.14-2.33-.26-3.3-.28-1.8-.03-1.8-.03-3.17 2.58-1.37 2.61-1.37 2.61-2.96 2.46a5.84 5.84 0 0 1-1.8-.35c-.1-.11 1.6-3.77 3.8-8.12 2.2-4.35 4.1-8.44 4.24-9.08.37-1.75.71-2 2.7-1.95 2.06.04 2.46.38 2.84 2.38.15.77.57 2.75.95 4.4.38 1.64.78 3.59.89 4.32.1.73.32 1.48.47 1.67.27.35.45 1.15.85 3.65.12.74.5 1.89.83 2.56.9 1.8.58 2.27-1.56 2.27-1.43 0-1.86-.13-2.13-.65zm-1.78-10.15c-.27-1.8-.97-5-1.23-5.67-.26-.67-.26-.67-.52 0a24.5 24.5 0 0 1-1.2 2.26 7.45 7.45 0 0 0-.94 2.08c0 .27-.19.8-.42 1.16-.5.83.06 1.3 1.58 1.32.55 0 1.22.15 1.5.32.76.48 1.42-.29 1.23-1.47zm-30.8 8.55c-.16-.32-.71-1.85-1.22-3.4-.5-1.56-1.5-4.32-2.22-6.13-.71-1.81-1.25-3.63-1.2-4.05.13-1-.96-2.14-2.03-2.14-.51 0-.7.11-.47.26.22.14.48 1.53.6 3.24.29 4.02.43 5.84.7 8.89.27 2.97-.02 3.58-1.7 3.58-1.56 0-1.8-.5-1.68-3.5.06-1.46-.02-3.63-.16-4.82-.55-4.33-.69-11.86-.24-12.24.6-.5 3.58-.4 4.67.15.91.46 1.91 2.3 1.91 3.51 0 .36.32 1.1.7 1.64.38.54.78 1.61.88 2.38.1.77.37 1.7.6 2.07.22.36.6 1.45.84 2.4.24.97.53 1.76.64 1.76.12 0 .7-1.54 1.3-3.41.6-1.88 1.36-3.94 1.67-4.58.32-.64.86-2.04 1.21-3.1.35-1.08.86-2.07 1.14-2.22.5-.26 4.44.15 5.04.52.19.12.24 1.38.12 3.09-.11 1.59-.25 5.86-.3 9.49-.12 7.1-.14 7.18-1.9 7.19-1.28 0-1.72-.72-1.53-2.57.09-.87.25-4.58.37-8.23.22-7.13.1-7.46-1.3-3.74a6.2 6.2 0 0 1-.88 1.76c-.15.1-.28.58-.29 1.07 0 1.33-1.2 3.73-1.84 3.73-.37 0-.48.17-.35.53.23.58-.28 4.25-.86 6.2-.3.98-.54 1.25-1.14 1.25-.42 0-.9-.26-1.07-.58zm-4.17-16.3c-.34-.33-.62.17-.34.62.21.34.29.34.4 0 .08-.23.05-.5-.06-.62z"/>
</svg>
